<?xml version="1.0" encoding="UTF-8" standalone="no"?>
<!-- Created with Inkscape (http://www.inkscape.org/) -->

<svg
   xmlns:dc="http://purl.org/dc/elements/1.1/"
   xmlns:cc="http://creativecommons.org/ns#"
   xmlns:rdf="http://www.w3.org/1999/02/22-rdf-syntax-ns#"
   xmlns:svg="http://www.w3.org/2000/svg"
   xmlns="http://www.w3.org/2000/svg"
   xmlns:sodipodi="http://sodipodi.sourceforge.net/DTD/sodipodi-0.dtd"
   xmlns:inkscape="http://www.inkscape.org/namespaces/inkscape"
   width="744.09448819"
   height="1052.3622047"
   id="svg2"
   version="1.1"
   inkscape:version="0.48.2 r9819"
   sodipodi:docname="nalepka_1_en_curves.svg">
  <defs
     id="defs4">
    <clipPath
       clipPathUnits="userSpaceOnUse"
       id="clipPath134-6">
      <path
         d="m 45.074,397.551 141.853,0 0,228.849 -141.853,0 0,-228.849 z"
         id="path136-1"
         inkscape:connector-curvature="0" />
    </clipPath>
    <clipPath
       clipPathUnits="userSpaceOnUse"
       id="clipPath18-1">
      <path
         d="M 0,792 612,792 612,0 0,0 0,792 z"
         id="path20-5"
         inkscape:connector-curvature="0" />
    </clipPath>
    <clipPath
       clipPathUnits="userSpaceOnUse"
       id="clipPath56-2">
      <path
         d="M 0,792 612,792 612,0 0,0 0,792 z"
         id="path58-7"
         inkscape:connector-curvature="0" />
    </clipPath>
    <clipPath
       clipPathUnits="userSpaceOnUse"
       id="clipPath134">
      <path
         d="m 45.074,397.551 141.853,0 0,228.849 -141.853,0 0,-228.849 z"
         id="path136"
         inkscape:connector-curvature="0" />
    </clipPath>
    <clipPath
       clipPathUnits="userSpaceOnUse"
       id="clipPath166">
      <path
         d="m 208,397.551 141.852,0 0,228.849 -141.852,0 0,-228.849 z"
         id="path168"
         inkscape:connector-curvature="0" />
    </clipPath>
    <clipPath
       clipPathUnits="userSpaceOnUse"
       id="clipPath198">
      <path
         d="m 376.8,498.69 85.111,0 0,137.31 -85.111,0 0,-137.31 z"
         id="path200"
         inkscape:connector-curvature="0" />
    </clipPath>
    <clipPath
       clipPathUnits="userSpaceOnUse"
       id="clipPath230">
      <path
         d="m 441.445,391.891 85.111,0 0,137.309 -85.111,0 0,-137.309 z"
         id="path232"
         inkscape:connector-curvature="0" />
    </clipPath>
    <clipPath
       clipPathUnits="userSpaceOnUse"
       id="clipPath262">
      <path
         d="m 136.8,259.469 304.161,0 0,59.731 -304.161,0 0,-59.731 z"
         id="path264"
         inkscape:connector-curvature="0" />
    </clipPath>
    <clipPath
       clipPathUnits="userSpaceOnUse"
       id="clipPath294">
      <path
         d="m 136.8,188.67 304.161,0 0,59.73 -304.161,0 0,-59.73 z"
         id="path296"
         inkscape:connector-curvature="0" />
    </clipPath>
    <clipPath
       clipPathUnits="userSpaceOnUse"
       id="clipPath326">
      <path
         d="m 204.962,144 167.838,0 0,32.96 -167.838,0 0,-32.96 z"
         id="path328"
         inkscape:connector-curvature="0" />
    </clipPath>
    <clipPath
       clipPathUnits="userSpaceOnUse"
       id="clipPath358">
      <path
         d="m 204.962,100.24 167.838,0 0,32.96 -167.838,0 0,-32.96 z"
         id="path360"
         inkscape:connector-curvature="0" />
    </clipPath>
    <clipPath
       clipPathUnits="userSpaceOnUse"
       id="clipPath4444">
      <path
         inkscape:connector-curvature="0"
         d="M 0,0 612,0 612,792 0,792 0,0 z"
         id="path4446" />
    </clipPath>
    <clipPath
       clipPathUnits="userSpaceOnUse"
       id="clipPath4428">
      <path
         inkscape:connector-curvature="0"
         d="M 0,0 612,0 612,792 0,792 0,0 z"
         id="path4430" />
    </clipPath>
    <clipPath
       id="clipPath3058"
       clipPathUnits="userSpaceOnUse">
      <path
         id="path3060"
         d="M 0,0 612,0 612,792 0,792 0,0 z"
         inkscape:connector-curvature="0" />
    </clipPath>
    <clipPath
       clipPathUnits="userSpaceOnUse"
       id="clipPath18">
      <path
         d="M 0,792 612,792 612,0 0,0 0,792 z"
         id="path20"
         inkscape:connector-curvature="0" />
    </clipPath>
    <clipPath
       clipPathUnits="userSpaceOnUse"
       id="clipPath56">
      <path
         d="M 0,792 612,792 612,0 0,0 0,792 z"
         id="path58"
         inkscape:connector-curvature="0" />
    </clipPath>
    <clipPath
       clipPathUnits="userSpaceOnUse"
       id="clipPath764">
      <path
         d="m 60.155,472.06 69.989,0 0,66.345 -69.989,0 0,-66.345 z"
         id="path766"
         inkscape:connector-curvature="0" />
    </clipPath>
    <clipPath
       clipPathUnits="userSpaceOnUse"
       id="clipPath778">
      <path
         d="m 36.4,393.12 131.681,0 0,76.32 -131.681,0 0,-76.32 z"
         id="path780"
         inkscape:connector-curvature="0" />
    </clipPath>
    <clipPath
       clipPathUnits="userSpaceOnUse"
       id="clipPath790">
      <path
         d="m 36.8,315.8 131.68,0 0,76.32 -131.68,0 0,-76.32 z"
         id="path792"
         inkscape:connector-curvature="0" />
    </clipPath>
    <clipPath
       clipPathUnits="userSpaceOnUse"
       id="clipPath840">
      <path
         d="M 69.28,123.822 103.922,95.77 127.967,125.464 93.326,153.516 69.28,123.822 z"
         id="path842"
         inkscape:connector-curvature="0" />
    </clipPath>
    <clipPath
       clipPathUnits="userSpaceOnUse"
       id="clipPath868">
      <path
         d="m 36,239.48 132.48,0 0,76.32 -132.48,0 0,-76.32 z"
         id="path870"
         inkscape:connector-curvature="0" />
    </clipPath>
    <clipPath
       clipPathUnits="userSpaceOnUse"
       id="clipPath934">
      <path
         d="m 54.72,168.729 65.071,0 0,62.585 -65.071,0 0,-62.585 z"
         id="path936"
         inkscape:connector-curvature="0" />
    </clipPath>
    <clipPath
       id="clipPath3032"
       clipPathUnits="userSpaceOnUse">
      <rect
         transform="matrix(0.5941434,-0.80435913,-0.80435913,-0.5941434,0,0)"
         y="-29.280237"
         x="-62.908512"
         height="68.101189"
         width="68.101189"
         id="rect3034"
         style="fill:#00ff00" />
    </clipPath>
  </defs>
  <sodipodi:namedview
     id="base"
     pagecolor="#ffffff"
     bordercolor="#666666"
     borderopacity="1.0"
     inkscape:pageopacity="0.0"
     inkscape:pageshadow="2"
     inkscape:zoom="0.35"
     inkscape:cx="375"
     inkscape:cy="462.71784"
     inkscape:document-units="px"
     inkscape:current-layer="layer1"
     showgrid="false"
     inkscape:window-width="1366"
     inkscape:window-height="706"
     inkscape:window-x="-8"
     inkscape:window-y="-8"
     inkscape:window-maximized="1" />
  <metadata
     id="metadata7">
    <rdf:RDF>
      <cc:Work
         rdf:about="">
        <dc:format>image/svg+xml</dc:format>
        <dc:type
           rdf:resource="http://purl.org/dc/dcmitype/StillImage" />
        <dc:title></dc:title>
      </cc:Work>
    </rdf:RDF>
  </metadata>
  <g
     inkscape:label="Layer 1"
     inkscape:groupmode="layer"
     id="layer1">
    <rect
       style="fill:#00ff00;fill-opacity:1;stroke:none"
       id="rect4317"
       width="1500"
       height="1500"
       x="-418.57144"
       y="-186.20924" />
    <g
       transform="matrix(3.1541789,0,0,3.1541789,-1278.9913,-882.94853)"
       id="layer1-0"
       inkscape:label="Layer 1"
       inkscape:export-filename="/home/andygunn/Commotion/Construction Kit/Graphic Assets/Pair_of_installers.png"
       inkscape:export-xdpi="27.59"
       inkscape:export-ydpi="27.59">
      <g
         id="g4023"
         transform="matrix(4.0135444,0,0,4.0135444,31.703737,-1820.7701)">
        <g
           id="g1944"
           transform="matrix(1.25,0,0,-1.25,110.46796,542.95031)">
          <path
             inkscape:connector-curvature="0"
             d="m 0,0 -16.244,6.606 c 2.977,0.792 5.173,3.496 5.173,6.722 0,3.846 -3.117,6.963 -6.964,6.963 -3.843,0 -6.959,-3.117 -6.959,-6.963 0,-3.262 2.244,-5.991 5.268,-6.747 l -2.556,-1.04 c -0.06,-0.025 -0.122,-0.048 -0.181,-0.073 L -35.907,0 c -1.17,-0.477 -1.732,-1.813 -1.257,-2.98 0.476,-1.172 1.812,-1.733 2.98,-1.256 l 8.245,3.351 0,-16.653 0.943,0 0,-15.525 c 0,-1.262 1.025,-2.287 2.287,-2.287 1.264,0 2.288,1.025 2.288,2.287 l 0,15.525 4.776,0 0,-15.525 c 0,-1.262 1.024,-2.287 2.287,-2.287 1.263,0 2.288,1.025 2.288,2.287 l 0,15.525 0.942,0 0,16.719 8.405,-3.417 c 1.168,-0.477 2.504,0.084 2.98,1.256 C 1.732,-1.813 1.169,-0.477 0,0"
             style="fill:#241f21;fill-opacity:1;fill-rule:nonzero;stroke:none"
             id="path1946" />
        </g>
        <g
           id="g1948"
           transform="matrix(1.25,0,0,-1.25,88.089958,547.24106)">
          <path
             inkscape:connector-curvature="0"
             d="m 0,0 c 0.416,0.81 0.811,1.226 1.619,1.226 0.897,0 1.619,-0.723 1.619,-1.62 0,-1.619 -1.619,-3.259 -3.238,-4.878 -1.619,1.619 -3.238,3.259 -3.238,4.878 0,0.897 0.721,1.62 1.619,1.62 C -0.811,1.226 -0.393,0.81 0,0"
             style="fill:#ffffff;fill-opacity:1;fill-rule:nonzero;stroke:none"
             id="path1950" />
        </g>
      </g>
    </g>
    <text
       xml:space="preserve"
       style="font-size:34.36988449px;font-style:normal;font-weight:normal;line-height:125%;letter-spacing:0px;word-spacing:0px;fill:#000000;fill-opacity:1;stroke:none;font-family:Sans"
       x="547.7132"
       y="610.43561"
       id="text3261"
       sodipodi:linespacing="125%"><tspan
         sodipodi:role="line"
         id="tspan3263"
         x="547.7132"
         y="610.43561" /></text>
    <g
       style="font-size:69.93782806000000100px;font-style:normal;font-weight:normal;line-height:69.99999880999999400%;letter-spacing:0px;word-spacing:0px;fill:#ffffff;fill-opacity:1;stroke:none;font-family:Sans"
       id="text3299">
      <path
         d="m -117.51531,254.67892 -11.09854,-36.26658 6.35178,0 5.77124,20.93354 2.1514,7.78604 c 0.091,-0.38702 0.71712,-2.87991 1.87822,-7.4787 l 5.77123,-21.24088 6.31763,0 5.429743,21.03598 1.809914,6.93232 2.083109,-7.00062 6.215178,-20.96768 5.976133,0 -11.337577,36.26658 -6.385925,0 -5.771235,-21.71897 -1.40012,-6.18103 -7.34211,27.9 z"
         style="text-align:center;line-height:69.99999880999999400%;text-anchor:middle;fill:#ffffff"
         id="path3350" />
      <path
         d="m -73.633426,211.68492 0,-7.06891 6.14688,0 0,7.06891 z m 0,42.994 0,-36.26658 6.14688,0 0,36.26658 z"
         style="text-align:center;line-height:69.99999880999999400%;text-anchor:middle;fill:#ffffff"
         id="path3352" />
      <path
         d="m -60.485931,239.65322 0,-6.18103 18.88458,0 0,6.18103 z"
         style="text-align:center;line-height:69.99999880999999400%;text-anchor:middle;fill:#ffffff"
         id="path3354" />
      <path
         d="m -33.268917,254.67892 0,-31.48568 -5.429744,0 0,-4.7809 5.429744,0 0,-3.85888 c -6e-6,-2.43594 0.216273,-4.24585 0.648837,-5.42974 0.591914,-1.59359 1.633468,-2.88557 3.124664,-3.87595 1.491176,-0.99028 3.579974,-1.48545 6.266402,-1.4855 1.730215,5e-5 3.642575,0.20495 5.737087,0.61469 l -0.922032,5.36145 c -1.274928,-0.22762 -2.481536,-0.34145 -3.619829,-0.3415 -1.866845,5e-5 -3.187285,0.39846 -3.961322,1.19523 -0.774064,0.79686 -1.161089,2.28805 -1.161077,4.47356 l 0,3.34664 7.068911,0 0,4.7809 -7.068911,0 0,31.48568 z"
         style="text-align:center;line-height:69.99999880999999400%;text-anchor:middle;fill:#ffffff"
         id="path3356" />
      <path
         d="m -15.306369,211.68492 0,-7.06891 6.1468794,0 0,7.06891 z m 0,42.994 0,-36.26658 6.1468794,0 0,36.26658 z"
         style="text-align:center;line-height:69.99999880999999400%;text-anchor:middle;fill:#ffffff"
         id="path3358" />
    </g>
    <path
       sodipodi:type="arc"
       style="fill:#ffff00;fill-opacity:1;stroke:none"
       id="path3329"
       sodipodi:cx="-500"
       sodipodi:cy="1152.3622"
       sodipodi:rx="151.42857"
       sodipodi:ry="151.42857"
       d="m -348.57143,1152.3622 a 151.42857,151.42857 0 1 1 -302.85714,0 151.42857,151.42857 0 1 1 302.85714,0 z"
       transform="matrix(1.530001,0,0,1.530001,1027.9427,-753.691)" />
    <path
       sodipodi:type="arc"
       style="fill:#ffff00;fill-opacity:1;stroke:none"
       id="path3331"
       sodipodi:cx="-164.28572"
       sodipodi:cy="1156.6479"
       sodipodi:rx="110"
       sodipodi:ry="110"
       d="m -54.285721,1156.6479 a 110,110 0 1 1 -219.999999,0 110,110 0 1 1 219.999999,0 z"
       transform="matrix(1.530001,0,0,1.530001,1028.4033,-698.703)" />
    <path
       style="fill:none;stroke:#008000;stroke-width:46.9318161;stroke-linecap:round;stroke-linejoin:round;stroke-miterlimit:4;stroke-opacity:1;stroke-dasharray:none"
       d="M 279.5076,769.45571 258.5709,1000.6817 752.54264,830.19561 781.53203,1070.8547 753.97747,830.91071 c -148.96197,-7.1814 -18.23284,-8.0247 -474.46987,-61.455 z"
       id="path3333"
       inkscape:connector-curvature="0"
       sodipodi:nodetypes="cccccc" />
    <path
       style="fill:#165016;stroke:#165016;stroke-width:42.03476715;stroke-linecap:round;stroke-linejoin:round;stroke-miterlimit:4;stroke-opacity:1;stroke-dasharray:none"
       d="m 238.0943,687.31881 146.7878,46.7052 z"
       id="path4185"
       inkscape:connector-curvature="0" />
    <path
       style="fill:none;stroke:#165016;stroke-width:35.02897263;stroke-linecap:butt;stroke-linejoin:miter;stroke-miterlimit:4;stroke-opacity:1;stroke-dasharray:none"
       d="m 598.3924,693.99101 c 23.623,-2.6446 30.2111,-1.5748 46.7051,6.6722 1.9891,0.9946 5.0996,-1.5727 6.6726,0 6.2967,86.989 46.53627,127.8802 103.41848,130.1076 116.59184,-14.888 48.91141,-24.9336 40.03313,-166.8047"
       id="path4205"
       inkscape:connector-curvature="0"
       sodipodi:nodetypes="ccccc" />
    <g
       style="font-size:383.05349731px;font-style:normal;font-weight:normal;line-height:125%;letter-spacing:0px;word-spacing:0px;fill:#008000;fill-opacity:1;stroke:none;font-family:Sans"
       id="text3164">
      <path
         d="m 285.0012,204.04654 0,-274.197475 94.45411,0 c 21.32217,2.74e-4 37.59444,1.309538 48.81687,3.927795 15.71099,3.616331 29.11536,10.162649 40.21314,19.638973 14.46403,12.220044 25.28104,27.837688 32.45106,46.8529791 7.16954,19.0156989 10.75442,40.7432389 10.75468,65.1826879 -2.6e-4,20.823664 -2.43175,39.27805 -7.29448,55.3632 -4.86322,16.08532 -11.09781,29.39617 -18.70378,39.93258 -7.60643,10.5365 -15.9296,18.8285 -24.96955,24.87603 -9.04036,6.04757 -19.95089,10.62999 -32.73162,13.74728 -12.78108,3.1173 -27.46354,4.67595 -44.04741,4.67595 z m 36.28534,-32.35755 58.54284,0 c 18.08018,4e-5 32.26387,-1.6833 42.55111,-5.05002 10.28691,-3.36664 18.48539,-8.10493 24.59548,-14.21487 8.60354,-8.60369 15.30572,-20.16885 20.10657,-34.69552 4.80042,-14.52651 7.20073,-32.139221 7.20095,-52.838194 -2.2e-4,-28.678968 -4.70733,-50.718238 -14.12135,-66.1178766 -9.41444,-15.3992284 -20.85491,-25.7174724 -34.32145,-30.9547624 -9.72613,-3.740517 -25.37494,-5.610894 -46.9465,-5.611135 l -57.60765,0 z"
         style=""
         id="path3188" />
      <path
         d="m 567.98946,204.04654 0,-274.197475 36.28534,0 0,274.197475 z"
         style=""
         id="path3190" />
      <path
         d="m 745.30132,204.04654 0,-116.1505 -105.67638,-158.046975 44.14093,0 54.05394,82.670726 c 9.97524,15.461971 19.26478,30.92375 27.86864,46.385384 8.22953,-14.339408 18.20487,-30.486992 29.92605,-48.442801 l 53.11875,-80.613309 42.27055,0 -109.41714,158.046975 0,116.1505 z"
         style=""
         id="path3192" />
    </g>
    <g
       style="font-size:266.40466309px;font-style:normal;font-weight:normal;line-height:125%;letter-spacing:0px;word-spacing:0px;fill:#008000;fill-opacity:1;stroke:none;font-family:Sans"
       id="text3168">
      <path
         d="m 333.41911,440.2125 -2.60161,-21.98359 c 5.11648,1.38749 9.58256,2.08125 13.39828,2.08129 5.20318,-4e-5 9.36575,-0.86724 12.48772,-2.60161 3.12188,-1.73444 5.68013,-4.1626 7.67474,-7.2845 1.4742,-2.34147 3.859,-8.15173 7.15442,-17.43078 0.43355,-1.30081 1.12731,-3.20865 2.08129,-5.72354 l -52.4224,-138.40554 25.2356,0 28.74777,79.99944 c 3.7289,10.14632 7.06763,20.81291 10.01619,31.99978 2.68825,-10.75327 5.8969,-21.24642 9.62595,-31.47946 l 29.52825,-80.51976 23.41447,0 -52.55248,140.48683 c -5.63689,15.17603 -10.01626,25.62581 -13.13812,31.34938 -4.16264,7.71806 -8.93225,13.37655 -14.30885,16.97549 -5.3767,3.59884 -11.79399,5.39828 -19.2519,5.39834 -4.50948,-6e-5 -9.53925,-0.95398 -15.08932,-2.86177 z"
         style=""
         id="path3179" />
      <path
         d="m 458.94669,317.93692 c 0,-25.58238 7.11105,-44.53074 21.33319,-56.84514 11.88063,-10.23285 26.3629,-15.34934 43.44685,-15.34948 18.99165,1.4e-4 34.51456,6.22231 46.56879,18.66653 12.05398,12.44447 18.08104,29.63675 18.08117,51.57688 -1.3e-4,17.77771 -2.66678,31.76134 -7.99994,41.95093 -5.33342,10.18965 -13.09488,18.10287 -23.28439,23.73968 -10.18973,5.63681 -21.31159,8.45522 -33.36563,8.45522 -19.33867,0 -34.96998,-6.20049 -46.89398,-18.60149 -11.92405,-12.40098 -17.88606,-30.26533 -17.88606,-53.59313 z m 24.06488,0 c -3e-5,17.69099 3.85901,30.93749 11.57715,39.73956 7.71806,8.80213 17.43072,13.20318 29.13801,13.20316 11.62043,2e-5 21.28974,-4.42271 29.00793,-13.2682 7.718,-8.84543 11.57705,-22.33042 11.57716,-40.455 -1.1e-4,-17.08381 -3.88084,-30.0268 -11.6422,-38.829 -7.76156,-8.80199 -17.40918,-13.20304 -28.94289,-13.20316 -11.70729,1.2e-4 -21.41995,4.37949 -29.13801,13.13812 -7.71814,8.75884 -11.57718,21.98367 -11.57715,39.67452 z"
         style=""
         id="path3181" />
      <path
         d="m 706.4897,387.00961 0,-20.29254 c -10.75341,15.60965 -25.36576,23.41447 -43.8371,23.41447 -8.15176,0 -15.76146,-1.56096 -22.82911,-4.68289 -7.06773,-3.12193 -12.31431,-7.04601 -15.73973,-11.77228 -3.42547,-4.72623 -5.83196,-10.51481 -7.21946,-17.36573 -0.95394,-4.59614 -1.4309,-11.88064 -1.43088,-21.85351 l 0,-85.5929 23.41447,0 0,76.61735 c -4e-5,12.22761 0.47692,20.46603 1.43088,24.71528 1.4742,6.15717 4.59613,10.99182 9.36579,14.50396 4.76956,3.51219 10.66653,5.26828 17.69094,5.26826 7.02426,2e-5 13.615,-1.79943 19.77222,-5.39834 6.15704,-3.59886 10.51473,-8.49855 13.07308,-14.69908 2.55814,-6.20046 3.83726,-15.19768 3.83737,-26.99169 l 0,-74.01574 23.41447,0 0,138.14538 z"
         style=""
         id="path3183" />
      <path
         d="m 763.98523,387.00961 0,-138.14538 21.07303,0 0,20.94294 c 5.37661,-9.79926 10.34134,-16.25992 14.8942,-19.38198 4.55276,-3.12179 9.56085,-4.68275 15.02429,-4.68289 7.89147,1.4e-4 15.91309,2.51502 24.06488,7.54466 l -8.06499,21.72343 c -5.72362,-3.38198 -11.44715,-5.07302 -17.17061,-5.07314 -5.11656,1.2e-4 -9.71273,1.5394 -13.78853,4.61786 -4.0759,3.07867 -6.98102,7.34964 -8.71538,12.81292 -2.60165,8.32523 -3.90246,17.43085 -3.90241,27.31688 l 0,72.3247 z"
         style=""
         id="path3185" />
    </g>
    <g
       style="font-size:237.08692932px;font-style:normal;font-weight:normal;line-height:125%;letter-spacing:0px;word-spacing:0px;fill:#008000;fill-opacity:1;stroke:none;font-family:Sans"
       id="text3172">
      <path
         d="m 135.94972,593.84686 0,-122.94254 18.75394,0 0,17.48053 c 9.02964,-13.5058 22.07249,-20.25876 39.12861,-20.25889 7.40888,1.3e-4 14.21972,1.33142 20.43254,3.9939 6.21262,2.66271 10.86252,6.15496 13.94969,10.47674 3.08696,4.322 5.24791,9.45425 6.48285,15.39676 0.77165,3.85893 1.15753,10.61188 1.15765,20.25889 l 0,75.59461 -20.83772,0 0,-74.78425 c -9e-5,-8.48936 -0.81045,-14.83714 -2.43107,-19.04336 -1.6208,-4.20604 -4.49563,-7.56322 -8.6245,-10.07157 -4.12903,-2.50813 -8.97187,-3.76225 -14.52852,-3.76236 -8.87538,1.1e-4 -16.53517,2.81705 -22.97937,8.45085 -6.4443,5.634 -9.66642,16.32296 -9.66639,32.06693 l 0,67.14376 z"
         style=""
         id="path3162" />
      <path
         d="m 352.08316,554.2552 21.53231,2.6626 c -3.3959,12.57983 -9.68579,22.34267 -18.86971,29.28857 -9.18413,6.9459 -20.91498,10.41885 -35.1926,10.41886 -17.98222,-10e-6 -32.24061,-5.53743 -42.7752,-16.6123 -10.53464,-11.07483 -15.80195,-26.60664 -15.80194,-46.59545 -1e-5,-20.68328 5.32518,-36.73603 15.97559,-48.15828 10.65035,-11.42204 24.46497,-17.13311 41.4439,-17.13324 16.43857,1.3e-4 29.8673,5.59544 40.28626,16.78594 10.41874,11.19073 15.62817,26.93476 15.62829,47.23216 -1.2e-4,1.23489 -0.0387,3.08713 -0.11577,5.55673 l -91.68596,0 c 0.77174,13.50597 4.59198,23.84764 11.46075,31.02505 6.86868,7.17745 15.43529,10.76616 25.69985,10.76615 7.64042,10e-6 14.16185,-2.00658 19.5643,-6.01979 5.40228,-4.01316 9.68559,-10.41882 12.84993,-19.217 z m -68.41718,-33.68765 68.64871,0 c -0.92622,-10.3416 -3.55023,-18.09785 -7.87203,-23.26878 -6.63728,-8.02628 -15.24248,-12.03946 -25.81562,-12.03957 -9.56997,1.1e-4 -17.61563,3.20294 -24.13702,9.6085 -6.52147,6.40576 -10.12948,14.97237 -10.82404,25.69985 z"
         style=""
         id="path3164" />
      <path
         d="m 445.38983,575.20868 3.00989,18.40665 c -5.86549,1.23483 -11.1135,1.85224 -15.74405,1.85224 -7.56336,0 -13.42879,-1.19624 -17.5963,-3.58871 -4.16757,-2.39248 -7.10028,-5.53743 -8.79815,-9.43486 -1.69791,-3.89741 -2.54685,-12.09743 -2.54683,-24.60008 l 0,-70.73248 -15.28099,0 0,-16.20712 15.28099,0 0,-30.44622 20.72195,-12.50263 0,42.94885 20.95349,0 0,16.20712 -20.95349,0 0,71.89013 c -4e-5,5.94263 0.36655,9.76288 1.09977,11.46074 0.73314,1.69791 1.92938,3.0485 3.58872,4.05178 1.65925,1.00332 4.03244,1.50496 7.11955,1.50495 2.31525,10e-6 5.36373,-0.2701 9.14545,-0.81036 z"
         style=""
         id="path3166" />
      <path
         d="m 488.33868,593.84686 -37.62366,-122.94254 21.53231,0 19.5643,70.96401 7.2932,26.39445 c 0.30866,-1.31198 2.43102,-9.76283 6.36709,-25.35256 l 19.5643,-72.0059 21.41654,0 18.40665,71.31131 6.13555,23.50031 7.06167,-23.73184 21.06925,-71.07978 20.2589,0 -38.43402,122.94254 -21.64807,0 -19.5643,-73.6266 -4.74637,-20.95349 -24.8895,94.58009 z"
         style=""
         id="path3168" />
      <path
         d="m 629.22483,532.37559 c -10e-6,-22.76705 6.32847,-39.63015 18.98547,-50.58935 10.57318,-9.10673 23.46168,-13.66015 38.66555,-13.66028 16.90162,1.3e-4 30.71624,5.53755 41.4439,16.61229 10.72745,11.07496 16.09123,26.37524 16.09135,45.90087 -1.2e-4,15.82128 -2.3733,28.26601 -7.11955,37.33424 -4.74648,9.06829 -11.65379,16.11066 -20.72195,21.12713 -9.06836,5.01649 -18.96626,7.52473 -29.69375,7.52474 -17.21046,-10e-6 -31.12156,-5.51814 -41.73332,-16.55441 -10.61182,-11.03625 -15.91771,-26.93464 -15.9177,-47.69523 z m 21.41654,0 c -3e-5,15.7441 3.43433,27.53284 10.30309,35.36624 6.86869,7.83346 15.51247,11.75017 25.93139,11.75016 10.3416,10e-6 18.9468,-3.936 25.81561,-11.80804 6.86864,-7.87199 10.303,-19.87296 10.3031,-36.00295 -10e-5,-15.20374 -3.45376,-26.72235 -10.36098,-34.55588 -6.9074,-7.83333 -15.4933,-11.75005 -25.75773,-11.75016 -10.41892,1.1e-4 -19.0627,3.89753 -25.93139,11.69228 -6.86876,7.79494 -10.30312,19.56438 -10.30309,35.30835 z"
         style=""
         id="path3170" />
      <path
         d="m 768.72173,593.84686 0,-122.94254 18.75394,0 0,18.63819 c 4.78492,-8.72086 9.20328,-14.47052 13.25511,-17.249 4.05172,-2.77824 8.50867,-4.16742 13.37087,-4.16755 7.02301,1.3e-4 14.16185,2.23825 21.41654,6.71438 l -7.17744,19.33277 c -5.09373,-3.00979 -10.18739,-4.51474 -15.28099,-4.51484 -4.55348,10e-5 -8.64385,1.36999 -12.2711,4.10966 -3.62735,2.73987 -6.21277,6.54082 -7.75626,11.40286 -2.31534,7.40905 -3.47299,15.5126 -3.47296,24.31068 l 0,64.36539 z"
         style=""
         id="path3172" />
      <path
         d="m 848.25237,593.84686 0,-169.71164 20.83772,0 0,96.77963 49.31593,-50.01053 26.97327,0 -47.00063,45.61145 51.747,77.33109 -25.69985,0 -40.63355,-62.86045 -14.70217,14.12334 0,48.73711 z"
         style=""
         id="path3174" />
      <path
         d="m 977.79351,551.70837 -6.36708,-89.94949 0,-37.62366 25.81562,0 0,37.62366 -6.01979,89.94949 z m -5.44096,42.13849 0,-23.73184 23.96338,0 0,23.73184 z"
         style=""
         id="path3176" />
    </g>
    <g
       transform="matrix(-0.01145433,0.9999344,-0.9999344,-0.01145433,0,0)"
       style="font-size:89.01616669px;font-style:normal;font-weight:normal;line-height:125%;letter-spacing:0px;word-spacing:0px;fill:#1a1a1a;fill-opacity:1;stroke:none;font-family:Sans"
       id="text3007">
      <path
         d="m 774.284,341.58716 0,-40.07466 -6.91093,0 0,-6.08509 6.91093,0 0,-4.91154 c -10e-6,-3.10044 0.27527,-5.40408 0.82583,-6.91092 0.75338,-2.02831 2.07906,-3.67273 3.97704,-4.93327 1.89796,-1.26042 4.55656,-1.89066 7.97582,-1.89073 2.2022,7e-5 4.63623,0.26086 7.3021,0.78237 l -1.17355,6.824 c -1.62272,-0.28971 -3.15847,-0.43459 -4.60728,-0.43465 -2.3761,6e-5 -4.05675,0.50715 -5.04193,1.52127 -0.98522,1.01424 -1.47783,2.9122 -1.47781,5.69391 l 0,4.25956 8.99724,0 0,6.08509 -8.99724,0 0,40.07466 z"
         style=""
         id="path3195" />
      <path
         d="m 827.22428,335.89325 c -2.8977,2.46302 -5.68669,4.20161 -8.367,5.21579 -2.68036,1.01419 -5.55629,1.52128 -8.62779,1.52128 -5.07092,0 -8.96827,-1.23875 -11.69206,-3.71625 -2.72381,-2.4775 -4.08571,-5.64319 -4.08571,-9.49709 0,-2.26016 0.51433,-4.32474 1.54301,-6.19375 1.02866,-1.86897 2.37607,-3.36851 4.04224,-4.49862 1.66614,-1.13007 3.54238,-1.98488 5.6287,-2.56443 1.53575,-0.40565 3.85388,-0.79683 6.95439,-1.17356 6.31688,-0.75336 10.96762,-1.65163 13.95224,-2.69482 0.0289,-1.07211 0.0434,-1.75306 0.0435,-2.04285 -4e-5,-3.1874 -0.73894,-5.43308 -2.21671,-6.73707 -1.99942,-1.76753 -4.96952,-2.65132 -8.91031,-2.65136 -3.68005,4e-5 -6.39661,0.64477 -8.14968,1.93419 -1.7531,1.2895 -3.0498,3.57141 -3.89011,6.84573 l -7.64982,-1.04316 c 0.69543,-3.27432 1.84001,-5.91844 3.43373,-7.93235 1.5937,-2.01383 3.89734,-3.56408 6.91092,-4.65075 3.01355,-1.08657 6.50523,-1.62988 10.47505,-1.62993 3.94079,5e-5 7.1427,0.46367 9.60574,1.39088 2.46298,0.92729 4.27402,2.0936 5.43312,3.49892 1.15902,1.40541 1.97037,3.18023 2.43404,5.32446 0.26074,1.33296 0.39114,3.73801 0.39118,7.21517 l 0,10.43159 c -4e-5,7.27314 0.16657,11.87317 0.49985,13.80011 0.33318,1.92695 0.9924,3.77421 1.97765,5.54178 l -8.17141,0 c -0.81138,-1.62269 -1.33296,-3.52066 -1.56473,-5.69391 z m -0.65198,-17.4729 c -2.83974,1.15909 -7.0993,2.14429 -12.77868,2.95562 -3.21643,0.46364 -5.49109,0.98522 -6.824,1.56474 -1.33294,0.57955 -2.36161,1.42711 -3.08601,2.54269 -0.72442,1.11562 -1.08663,2.35437 -1.08662,3.71625 -1e-5,2.08633 0.7896,3.82493 2.36884,5.2158 1.57921,1.39088 3.89009,2.08632 6.93265,2.08631 3.01355,1e-5 5.69388,-0.65921 8.04101,-1.97765 2.34708,-1.31843 4.07119,-3.12222 5.17233,-5.41139 0.84029,-1.76755 1.26045,-4.37545 1.26048,-7.82368 z"
         style=""
         id="path3197" />
      <path
         d="m 846.47924,341.58716 0,-63.71958 7.82368,0 0,63.71958 z"
         style=""
         id="path3199" />
      <path
         d="m 896.5943,335.89325 c -2.8977,2.46302 -5.68669,4.20161 -8.367,5.21579 -2.68036,1.01419 -5.55629,1.52128 -8.62779,1.52128 -5.07092,0 -8.96827,-1.23875 -11.69206,-3.71625 -2.72381,-2.4775 -4.08571,-5.64319 -4.08571,-9.49709 0,-2.26016 0.51433,-4.32474 1.54301,-6.19375 1.02866,-1.86897 2.37607,-3.36851 4.04224,-4.49862 1.66614,-1.13007 3.54238,-1.98488 5.6287,-2.56443 1.53575,-0.40565 3.85388,-0.79683 6.95439,-1.17356 6.31688,-0.75336 10.96762,-1.65163 13.95224,-2.69482 0.0289,-1.07211 0.0434,-1.75306 0.0435,-2.04285 -4e-5,-3.1874 -0.73894,-5.43308 -2.21671,-6.73707 -1.99942,-1.76753 -4.96952,-2.65132 -8.91031,-2.65136 -3.68005,4e-5 -6.39661,0.64477 -8.14968,1.93419 -1.7531,1.2895 -3.0498,3.57141 -3.89011,6.84573 l -7.64982,-1.04316 c 0.69543,-3.27432 1.84,-5.91844 3.43373,-7.93235 1.5937,-2.01383 3.89734,-3.56408 6.91092,-4.65075 3.01355,-1.08657 6.50523,-1.62988 10.47505,-1.62993 3.94079,5e-5 7.1427,0.46367 9.60574,1.39088 2.46298,0.92729 4.27402,2.0936 5.43312,3.49892 1.15902,1.40541 1.97037,3.18023 2.43404,5.32446 0.26074,1.33296 0.39114,3.73801 0.39118,7.21517 l 0,10.43159 c -4e-5,7.27314 0.16657,11.87317 0.49985,13.80011 0.33318,1.92695 0.9924,3.77421 1.97765,5.54178 l -8.17141,0 c -0.81138,-1.62269 -1.33296,-3.52066 -1.56473,-5.69391 z m -0.65198,-17.4729 c -2.83974,1.15909 -7.0993,2.14429 -12.77868,2.95562 -3.21643,0.46364 -5.49109,0.98522 -6.824,1.56474 -1.33294,0.57955 -2.36161,1.42711 -3.08601,2.54269 -0.72443,1.11562 -1.08663,2.35437 -1.08662,3.71625 -10e-6,2.08633 0.7896,3.82493 2.36884,5.2158 1.57921,1.39088 3.89009,2.08632 6.93265,2.08631 3.01355,1e-5 5.69388,-0.65921 8.04101,-1.97765 2.34708,-1.31843 4.07119,-3.12222 5.17233,-5.41139 0.84029,-1.76755 1.26045,-4.37545 1.26048,-7.82368 z"
         style=""
         id="path3201" />
      <path
         d="m 916.02311,341.58716 0,-46.15975 7.04132,0 0,6.5632 c 3.39025,-5.07086 8.28729,-7.60631 14.69115,-7.60636 2.78172,5e-5 5.33891,0.49989 7.67156,1.49954 2.33258,0.99974 4.07842,2.31093 5.23752,3.93358 1.15902,1.62273 1.97037,3.54967 2.43404,5.78083 0.28972,1.44887 0.4346,3.98432 0.43465,7.60636 l 0,28.3826 -7.82369,0 0,-28.07834 c -4e-5,-3.1874 -0.30429,-5.57072 -0.91276,-7.14998 -0.60855,-1.57919 -1.68793,-2.83967 -3.23814,-3.78145 -1.55028,-0.9417 -3.36856,-1.41257 -5.45485,-1.41261 -3.33233,4e-5 -6.20826,1.05768 -8.62779,3.17294 -2.41956,2.11533 -3.62933,6.12858 -3.62932,12.03978 l 0,25.20966 z"
         style=""
         id="path3203" />
      <path
         d="m 962.44366,327.80878 7.73676,-1.21702 c 0.43463,3.10051 1.64441,5.47659 3.62932,7.12825 1.98488,1.65167 4.75939,2.4775 8.32353,2.4775 3.59307,0 6.25892,-0.73166 7.99755,-2.19498 1.73856,-1.46331 2.60786,-3.18017 2.60789,-5.15059 -3e-5,-1.76756 -0.76791,-3.15844 -2.30364,-4.17264 -1.07216,-0.69542 -3.73801,-1.5792 -7.99755,-2.65136 -5.73738,-1.44881 -9.71442,-2.70205 -11.93112,-3.75971 -2.21672,-1.05763 -3.89736,-2.52094 -5.04193,-4.38996 -1.14458,-1.86896 -1.71687,-3.93355 -1.71686,-6.19375 -10e-6,-2.05731 0.47086,-3.96252 1.41261,-5.71564 0.94173,-1.75305 2.22394,-3.20912 3.84664,-4.36823 1.21701,-0.89823 2.87592,-1.65886 4.97674,-2.2819 2.10078,-0.62295 4.35371,-0.93445 6.75879,-0.9345 3.62205,5e-5 6.80223,0.52163 9.54055,1.56474 2.73826,1.0432 4.75938,2.45581 6.06336,4.23783 1.30391,1.7821 2.20218,4.16542 2.69483,7.14998 l -7.64983,1.04316 c -0.34775,-2.37605 -1.35469,-4.23055 -3.02081,-5.56352 -1.66619,-1.33288 -4.02053,-1.99934 -7.06305,-1.99938 -3.59312,4e-5 -6.15755,0.59406 -7.6933,1.78206 -1.53577,1.18808 -2.30365,2.57896 -2.30364,4.17263 -1e-5,1.01422 0.31873,1.92698 0.95623,2.73829 0.63747,0.84036 1.63717,1.53579 2.99908,2.08632 0.78235,0.2898 3.08599,0.95626 6.91092,1.99939 5.53451,1.47783 9.39564,2.6876 11.58341,3.62932 2.1877,0.94176 3.90456,2.3109 5.15059,4.10743 1.24597,1.79657 1.86897,4.02777 1.86897,6.6936 0,2.60791 -0.7607,5.06367 -2.28189,7.36731 -1.52131,2.30364 -3.71628,4.0857 -6.58493,5.34618 -2.86872,1.26048 -6.11409,1.89073 -9.73615,1.89073 -5.99817,0 -10.56923,-1.246 -13.71318,-3.73799 -3.14397,-2.49198 -5.1506,-6.1865 -6.01989,-11.08355 z"
         style=""
         id="path3205" />
      <path
         d="m 1027.1629,334.58931 1.1301,6.91092 c -2.2022,0.46362 -4.1726,0.69544 -5.9112,0.69544 -2.8397,0 -5.042,-0.44914 -6.6067,-1.34742 -1.5647,-0.89827 -2.6658,-2.07906 -3.3033,-3.54239 -0.6375,-1.46331 -0.9562,-4.54207 -0.9562,-9.23629 l 0,-26.55707 -5.7374,0 0,-6.08509 5.7374,0 0,-11.43128 7.7802,-4.69421 0,16.12549 7.8671,0 0,6.08509 -7.8671,0 0,26.99172 c 0,2.23121 0.1376,3.66555 0.4129,4.30302 0.2753,0.6375 0.7244,1.14459 1.3474,1.52128 0.623,0.3767 1.514,0.56505 2.6731,0.56504 0.8693,1e-5 2.0139,-0.10141 3.4337,-0.30425 z"
         style=""
         id="path3207" />
      <path
         d="m 1066.3683,326.72215 8.0845,0.9997 c -1.2751,4.72319 -3.6366,8.38873 -7.0848,10.99662 -3.4483,2.6079 -7.8527,3.91185 -13.2134,3.91185 -6.7515,0 -12.105,-2.07907 -16.0602,-6.23722 -3.9554,-4.15814 -5.933,-9.98967 -5.933,-17.49463 0,-7.76571 1.9994,-13.79284 5.9981,-18.08141 3.9988,-4.2885 9.1856,-6.43276 15.5605,-6.43281 6.172,5e-5 11.2139,2.10085 15.1258,6.30241 3.9118,4.20165 5.8677,10.11287 5.8678,17.73369 -10e-5,0.46365 -0.015,1.15909 -0.043,2.08632 l -34.4242,0 c 0.2897,5.07092 1.7241,8.95379 4.303,11.6486 2.5789,2.69483 5.7953,4.04224 9.6492,4.04224 2.8687,0 5.3172,-0.75339 7.3456,-2.26018 2.0283,-1.50677 3.6365,-3.91183 4.8246,-7.21518 z m -25.6878,-12.64829 25.7747,0 c -0.3477,-3.88283 -1.3329,-6.79498 -2.9556,-8.73645 -2.492,-3.01353 -5.7229,-4.52031 -9.6927,-4.52035 -3.5931,4e-5 -6.6139,1.20257 -9.0624,3.60759 -2.4486,2.40509 -3.8032,5.62149 -4.064,9.64921 z"
         style=""
         id="path3209" />
      <path
         d="m 1084.2324,341.58716 0,-46.15975 7.0413,0 0,6.99785 c 1.7965,-3.27431 3.4554,-5.43307 4.9767,-6.47627 1.5213,-1.04311 3.1947,-1.56469 5.0202,-1.56474 2.6369,5e-5 5.3172,0.84037 8.041,2.52097 l -2.6948,7.25864 c -1.9125,-1.13005 -3.8249,-1.6951 -5.7374,-1.69513 -1.7096,3e-5 -3.2454,0.51437 -4.6072,1.543 -1.362,1.02871 -2.3327,2.4558 -2.9122,4.2813 -0.8693,2.78178 -1.304,5.82432 -1.3039,9.12763 l 0,24.1665 z"
         style=""
         id="path3211" />
      <path
         d="m 1116.266,341.58716 0,-8.91031 8.9103,0 0,8.91031 z"
         style=""
         id="path3213" />
      <path
         d="m 1145.9526,341.58716 -7.2587,0 0,-63.71958 7.8237,0 0,22.73215 c 3.3033,-4.14361 7.5194,-6.21543 12.6483,-6.21548 2.8397,5e-5 5.5273,0.57233 8.0628,1.71686 2.5354,1.14462 4.6217,2.75283 6.2589,4.82461 1.6371,2.07187 2.9194,4.5711 3.8466,7.4977 0.9273,2.92667 1.3909,6.05614 1.3909,9.38842 0,7.91064 -1.9559,14.0247 -5.8677,18.3422 -3.9119,4.31752 -8.6061,6.47628 -14.0827,6.47628 -5.4476,0 -9.7216,-2.27467 -12.8221,-6.824 z m -0.087,-23.4276 c 0,5.53456 0.7534,9.53332 2.2602,11.99632 2.463,4.02776 5.7953,6.04163 9.997,6.04163 3.4192,0 6.3748,-1.48505 8.8668,-4.45516 2.4919,-2.97009 3.7379,-7.39626 3.738,-13.27853 -10e-5,-6.02711 -1.1953,-10.47502 -3.5859,-13.34373 -2.3906,-2.86865 -5.281,-4.30299 -8.6712,-4.30303 -3.4193,4e-5 -6.3749,1.48509 -8.8669,4.45515 -2.492,2.97014 -3.738,7.26592 -3.738,12.88735 z"
         style=""
         id="path3215" />
      <path
         d="m 1187.9397,359.36431 -0.8693,-7.34557 c 1.7096,0.46362 3.2019,0.69543 4.4769,0.69544 1.7386,-10e-6 3.1294,-0.28978 4.1726,-0.8693 1.0432,-0.57954 1.898,-1.39089 2.5644,-2.43404 0.4926,-0.78237 1.2895,-2.7238 2.3906,-5.8243 0.1449,-0.43465 0.3767,-1.07213 0.6955,-1.91245 l -17.5164,-46.24668 8.4322,0 9.6057,26.73093 c 1.246,3.39028 2.3616,6.9544 3.3468,10.69237 0.8983,-3.59309 1.9704,-7.09926 3.2164,-10.51851 l 9.8666,-26.90479 7.8237,0 -17.5599,46.94212 c -1.8835,5.0709 -3.3468,8.56258 -4.3899,10.47504 -1.3909,2.57891 -2.9846,4.46963 -4.7812,5.67218 -1.7965,1.20251 -3.9408,1.80377 -6.4328,1.80379 -1.5068,-2e-5 -3.1874,-0.31876 -5.0419,-0.95623 z"
         style=""
         id="path3217" />
    </g>
    <g
       id="g6017"
       transform="matrix(-8.0888951,-2.6712899,-2.6712899,8.0888951,-23.1349,823.35341)"
       clip-path="url(#clipPath3032)"
       style="fill:#ffff00">
      <path
         d="m 0,0 c -0.255,0 -0.505,0.118 -0.666,0.34 -0.266,0.367 -0.183,0.881 0.184,1.147 7.067,5.109 9.985,13.992 7.435,22.629 -2.554,8.652 -9.845,14.535 -18.574,14.989 -0.453,0.023 -0.801,0.409 -0.777,0.862 0.023,0.453 0.401,0.801 0.862,0.778 C -2.102,40.255 5.774,33.911 8.528,24.581 11.278,15.267 8.119,5.679 0.481,0.156 0.335,0.051 0.167,0 0,0 m -3.776,4.432 c -0.228,0 -0.455,0.094 -0.617,0.279 -0.3,0.34 -0.266,0.859 0.075,1.159 4.338,3.812 6.043,9.713 4.449,15.401 -1.609,5.746 -6.154,9.942 -11.861,10.949 -0.446,0.079 -0.744,0.505 -0.666,0.952 0.079,0.447 0.509,0.745 0.952,0.666 C -5.11,32.719 -0.068,28.074 1.713,21.713 3.478,15.412 1.582,8.868 -3.234,4.636 -3.391,4.499 -3.583,4.432 -3.776,4.432 m -2.72,7.4 c -0.114,0 -0.229,0.023 -0.34,0.073 -0.413,0.189 -0.594,0.676 -0.407,1.088 1.022,2.241 1.11,4.746 0.247,7.052 -0.862,2.306 -2.571,4.139 -4.812,5.159 -0.412,0.188 -0.594,0.675 -0.406,1.088 0.188,0.412 0.674,0.594 1.087,0.407 2.64,-1.203 4.653,-3.362 5.669,-6.079 1.016,-2.717 0.913,-5.667 -0.29,-8.308 -0.138,-0.302 -0.436,-0.48 -0.748,-0.48"
         style="fill:#ffff00;fill-opacity:1;fill-rule:nonzero;stroke:none"
         id="path6019"
         inkscape:connector-curvature="0" />
    </g>
  </g>
</svg>
