<?xml version="1.0" encoding="UTF-8" standalone="no"?>
<!-- Created with Inkscape (http://www.inkscape.org/) -->

<svg
   xmlns:dc="http://purl.org/dc/elements/1.1/"
   xmlns:cc="http://creativecommons.org/ns#"
   xmlns:rdf="http://www.w3.org/1999/02/22-rdf-syntax-ns#"
   xmlns:svg="http://www.w3.org/2000/svg"
   xmlns="http://www.w3.org/2000/svg"
   xmlns:sodipodi="http://sodipodi.sourceforge.net/DTD/sodipodi-0.dtd"
   xmlns:inkscape="http://www.inkscape.org/namespaces/inkscape"
   width="744.09448819"
   height="1052.3622047"
   id="svg2"
   version="1.1"
   inkscape:version="0.48.2 r9819"
   sodipodi:docname="nalepka_4_en.svg"
   inkscape:export-filename="/home/svet/Dropbox/falanster/mesh/stickers/en_stickers/nalepka_4_en.png"
   inkscape:export-xdpi="90"
   inkscape:export-ydpi="90">
  <defs
     id="defs4">
    <clipPath
       id="clipPath3040"
       clipPathUnits="userSpaceOnUse">
      <rect
         y="276.73358"
         x="523.77606"
         height="278"
         width="278"
         id="rect3042"
         style="fill:#00ff00" />
    </clipPath>
    <clipPath
       id="clipPath3036"
       clipPathUnits="userSpaceOnUse">
      <rect
         transform="scale(1,-1)"
         y="-45.620049"
         x="-31.788492"
         height="55.412369"
         width="55.412369"
         id="rect3038"
         style="fill:#00ff00" />
    </clipPath>
    <clipPath
       id="clipPath3032"
       clipPathUnits="userSpaceOnUse">
      <rect
         transform="matrix(0.5941434,-0.80435913,-0.80435913,-0.5941434,0,0)"
         y="-29.280237"
         x="-62.908512"
         height="68.101189"
         width="68.101189"
         id="rect3034"
         style="fill:#00ff00" />
    </clipPath>
    <clipPath
       id="clipPath3028"
       clipPathUnits="userSpaceOnUse">
      <rect
         y="276.73358"
         x="523.77606"
         height="278"
         width="278"
         id="rect3030"
         style="fill:#00ff00" />
    </clipPath>
  </defs>
  <sodipodi:namedview
     id="base"
     pagecolor="#ffffff"
     bordercolor="#666666"
     borderopacity="1.0"
     inkscape:pageopacity="0.0"
     inkscape:pageshadow="2"
     inkscape:zoom="0.35"
     inkscape:cx="375"
     inkscape:cy="230.01927"
     inkscape:document-units="px"
     inkscape:current-layer="layer1"
     showgrid="false"
     inkscape:window-width="1366"
     inkscape:window-height="706"
     inkscape:window-x="-8"
     inkscape:window-y="-8"
     inkscape:window-maximized="1" />
  <metadata
     id="metadata7">
    <rdf:RDF>
      <cc:Work
         rdf:about="">
        <dc:format>image/svg+xml</dc:format>
        <dc:type
           rdf:resource="http://purl.org/dc/dcmitype/StillImage" />
        <dc:title></dc:title>
      </cc:Work>
    </rdf:RDF>
  </metadata>
  <g
     inkscape:label="Layer 1"
     inkscape:groupmode="layer"
     id="layer1">
    <rect
       style="fill:#00ff00"
       id="rect3044"
       width="1500"
       height="1500"
       x="116.36137"
       y="30.641651" />
    <path
       id="path1946"
       style="fill:#241f21;fill-opacity:1;fill-rule:nonzero;stroke:none"
       d="m 773.0718,488.38508 -81.49502,-33.14184 c 14.9354,-3.97341 25.95258,-17.53919 25.95258,-33.72381 0,-19.29511 -15.63777,-34.93289 -34.9379,-34.93289 -19.28007,0 -34.91282,15.63778 -34.91282,34.93289 0,16.36523 11.25799,30.05643 26.42919,33.84923 l -12.82328,5.21761 c -0.30101,0.12542 -0.61206,0.24081 -0.90806,0.36623 l -67.44761,27.43258 c -5.86981,2.39308 -8.68933,9.09569 -6.30629,14.95045 2.38806,5.87985 9.09068,8.69434 14.95046,6.30127 l 41.36459,-16.81174 0,83.54695 4.73097,0 0,77.88784 c 0,6.33137 5.14235,11.47372 11.47372,11.47372 6.3414,0 11.47873,-5.14235 11.47873,-11.47372 l 0,-77.88784 23.96086,0 0,77.88784 c 0,6.33137 5.13734,11.47372 11.47372,11.47372 6.33639,0 11.47874,-5.14235 11.47874,-11.47372 l 0,-77.88784 4.72595,0 0,-83.87806 42.1673,17.14285 c 5.85977,2.39307 12.56239,-0.42142 14.95045,-6.30127 2.38304,-5.85476 -0.44149,-12.55737 -6.30628,-14.95045"
       inkscape:connector-curvature="0"
       clip-path="url(#clipPath3040)"
       transform="matrix(5.7471272,0,0,5.7471272,-3060.513,-1663.2299)" />
    <g
       id="g1948"
       transform="matrix(28.83294,0,0,-28.83294,866.2501,1242.5533)"
       clip-path="url(#clipPath3036)">
      <path
         inkscape:connector-curvature="0"
         d="m 0,0 c 0.416,0.81 0.811,1.226 1.619,1.226 0.897,0 1.619,-0.723 1.619,-1.62 0,-1.619 -1.619,-3.259 -3.238,-4.878 -1.619,1.619 -3.238,3.259 -3.238,4.878 0,0.897 0.721,1.62 1.619,1.62 C -0.811,1.226 -0.393,0.81 0,0"
         style="fill:#ffffff;fill-opacity:1;fill-rule:nonzero;stroke:none"
         id="path1950" />
    </g>
    <g
       id="g6017"
       transform="matrix(13.939018,-18.870827,-18.870827,-13.939018,1425.5721,614.12801)"
       clip-path="url(#clipPath3032)">
      <path
         d="m 0,0 c -0.255,0 -0.505,0.118 -0.666,0.34 -0.266,0.367 -0.183,0.881 0.184,1.147 7.067,5.109 9.985,13.992 7.435,22.629 -2.554,8.652 -9.845,14.535 -18.574,14.989 -0.453,0.023 -0.801,0.409 -0.777,0.862 0.023,0.453 0.401,0.801 0.862,0.778 C -2.102,40.255 5.774,33.911 8.528,24.581 11.278,15.267 8.119,5.679 0.481,0.156 0.335,0.051 0.167,0 0,0 m -3.776,4.432 c -0.228,0 -0.455,0.094 -0.617,0.279 -0.3,0.34 -0.266,0.859 0.075,1.159 4.338,3.812 6.043,9.713 4.449,15.401 -1.609,5.746 -6.154,9.942 -11.861,10.949 -0.446,0.079 -0.744,0.505 -0.666,0.952 0.079,0.447 0.509,0.745 0.952,0.666 C -5.11,32.719 -0.068,28.074 1.713,21.713 3.478,15.412 1.582,8.868 -3.234,4.636 -3.391,4.499 -3.583,4.432 -3.776,4.432 m -2.72,7.4 c -0.114,0 -0.229,0.023 -0.34,0.073 -0.413,0.189 -0.594,0.676 -0.407,1.088 1.022,2.241 1.11,4.746 0.247,7.052 -0.862,2.306 -2.571,4.139 -4.812,5.159 -0.412,0.188 -0.594,0.675 -0.406,1.088 0.188,0.412 0.674,0.594 1.087,0.407 2.64,-1.203 4.653,-3.362 5.669,-6.079 1.016,-2.717 0.913,-5.667 -0.29,-8.308 -0.138,-0.302 -0.436,-0.48 -0.748,-0.48"
         style="fill:#241f21;fill-opacity:1;fill-rule:nonzero;stroke:none"
         id="path6019"
         inkscape:connector-curvature="0" />
    </g>
    <g
       transform="matrix(5.7471272,0,0,5.7471272,-3068.4099,-1580.9857)"
       clip-path="url(#clipPath3028)"
       style="font-size:20.19555283px;font-style:normal;font-weight:normal;line-height:85.00000238%;letter-spacing:0px;word-spacing:0px;fill:#ffffff;fill-opacity:1;stroke:none;font-family:Sans"
       id="text3005">
      <path
         d="m 668.63491,477.68683 -3.20486,-10.4725 1.83417,0 1.66653,6.04486 0.62125,2.24833 c 0.0263,-0.11175 0.20708,-0.83161 0.54236,-2.15958 l 1.66653,-6.13361 1.8243,0 1.56792,6.07444 0.52264,2.00181 0.60152,-2.02153 1.79473,-6.05472 1.72569,0 -3.27389,10.4725 -1.84402,0 -1.66653,-6.27167 -0.40431,-1.78486 -2.12014,8.05653 z"
         style="text-align:center;line-height:85.00000238%;text-anchor:middle;fill:#ffffff"
         id="path3079" />
      <path
         d="m 681.30644,465.27169 0,-2.04125 1.775,0 0,2.04125 z m 0,12.41514 0,-10.4725 1.775,0 0,10.4725 z"
         style="text-align:center;line-height:85.00000238%;text-anchor:middle;fill:#ffffff"
         id="path3081" />
      <path
         d="m 685.10297,473.34794 0,-1.78486 5.45319,0 0,1.78486 z"
         style="text-align:center;line-height:85.00000238%;text-anchor:middle;fill:#ffffff"
         id="path3083" />
      <path
         d="m 692.96227,477.68683 0,-9.09194 -1.56791,0 0,-1.38056 1.56791,0 0,-1.11431 c 0,-0.70341 0.0625,-1.22605 0.18736,-1.56791 0.17093,-0.46017 0.47169,-0.83325 0.90229,-1.11924 0.4306,-0.28596 1.03377,-0.42894 1.80952,-0.42896 0.49962,2e-5 1.05184,0.0592 1.65667,0.1775 l -0.26625,1.5482 c -0.36816,-0.0657 -0.71658,-0.0986 -1.04528,-0.0986 -0.53908,1e-5 -0.92038,0.11506 -1.14389,0.34514 -0.22352,0.2301 -0.33528,0.6607 -0.33528,1.2918 l 0,0.96639 2.04125,0 0,1.38056 -2.04125,0 0,9.09194 z"
         style="text-align:center;line-height:85.00000238%;text-anchor:middle;fill:#ffffff"
         id="path3085" />
      <path
         d="m 698.14922,465.27169 0,-2.04125 1.775,0 0,2.04125 z m 0,12.41514 0,-10.4725 1.775,0 0,10.4725 z"
         style="text-align:center;line-height:85.00000238%;text-anchor:middle;fill:#ffffff"
         id="path3087" />
    </g>
    <g
       transform="matrix(0.92680323,0.3755473,-0.3755473,0.92680323,0,0)"
       style="font-size:91.48741913px;font-style:normal;font-weight:normal;line-height:125%;letter-spacing:0px;word-spacing:0px;fill:#4d4d4d;fill-opacity:1;stroke:none;font-family:Sans"
       id="text3065">
      <path
         d="m 1302.489,511.93893 0,-41.1872 -7.1028,0 0,-6.25403 7.1028,0 0,-5.04789 c 0,-3.18651 0.2829,-5.55411 0.8488,-7.10278 0.7743,-2.08461 2.1368,-3.77468 4.0874,-5.07022 1.9507,-1.29541 4.6831,-1.94315 8.1973,-1.94322 2.2633,7e-5 4.7649,0.2681 7.5048,0.80409 l -1.2061,7.01344 c -1.6678,-0.29775 -3.2462,-0.44666 -4.7352,-0.44672 -2.4421,6e-5 -4.1694,0.52123 -5.1819,1.56351 -1.0126,1.04239 -1.5189,2.99305 -1.5189,5.85198 l 0,4.37781 9.2471,0 0,6.25403 -9.2471,0 0,41.1872 z"
         style=""
         id="path3054" />
      <path
         d="m 1356.899,506.08696 c -2.9781,2.53139 -5.8445,4.31825 -8.5993,5.36059 -2.7547,1.04233 -5.7105,1.5635 -8.8673,1.5635 -5.2117,0 -9.2172,-1.27314 -12.0166,-3.81942 -2.7995,-2.54627 -4.1992,-5.79985 -4.1992,-9.76074 0,-2.32291 0.5286,-4.44481 1.5859,-6.3657 1.0572,-1.92086 2.442,-3.46203 4.1544,-4.62351 1.7124,-1.16144 3.6408,-2.03998 5.785,-2.63563 1.5784,-0.4169 3.9609,-0.81895 7.1475,-1.20613 6.4922,-0.77428 11.2721,-1.69749 14.3395,-2.76964 0.03,-1.10187 0.045,-1.80172 0.045,-2.09956 0,-3.27588 -0.7594,-5.58391 -2.2782,-6.9241 -2.055,-1.8166 -5.1075,-2.72492 -9.1577,-2.72497 -3.7822,5e-5 -6.5742,0.66267 -8.3759,1.98789 -1.8018,1.32529 -3.1345,3.67055 -3.9981,7.03577 l -7.8622,-1.07211 c 0.7147,-3.36523 1.891,-6.08275 3.529,-8.15257 1.638,-2.06974 4.0056,-3.66302 7.1028,-4.77986 3.0972,-1.11674 6.6858,-1.67514 10.7658,-1.67518 4.0502,4e-5 7.341,0.47654 9.8725,1.42949 2.5313,0.95304 4.3926,2.15172 5.5839,3.59606 1.1912,1.44442 2.0251,3.26851 2.5016,5.47227 0.268,1.36997 0.402,3.84179 0.4021,7.41548 l 0,10.72119 c -1e-4,7.47505 0.1712,12.20279 0.5137,14.18323 0.3424,1.98044 1.02,3.87898 2.0326,5.69562 l -8.3983,0 c -0.8339,-1.66773 -1.37,-3.61839 -1.6082,-5.85197 z m -0.6701,-17.95798 c -2.9185,1.19126 -7.2963,2.20382 -13.1334,3.03766 -3.3057,0.47652 -5.6435,1.01258 -7.0134,1.60818 -1.37,0.59564 -2.4272,1.46674 -3.1717,2.61329 -0.7446,1.14659 -1.1168,2.41973 -1.1168,3.81942 0,2.14425 0.8115,3.93111 2.4346,5.36059 1.623,1.4295 3.9981,2.14424 7.1251,2.14424 3.0972,0 5.852,-0.67752 8.2642,-2.03256 2.4123,-1.35503 4.1843,-3.2089 5.316,-5.56161 0.8636,-1.81663 1.2954,-4.49693 1.2954,-8.04089 z"
         style=""
         id="path3056" />
      <path
         d="m 1376.6885,511.93893 0,-65.48855 8.0409,0 0,65.48855 z"
         style=""
         id="path3058" />
      <path
         d="m 1428.1949,506.08696 c -2.9782,2.53139 -5.8446,4.31825 -8.5993,5.36059 -2.7548,1.04233 -5.7105,1.5635 -8.8673,1.5635 -5.2117,0 -9.2173,-1.27314 -12.0167,-3.81942 -2.7994,-2.54627 -4.1991,-5.79985 -4.1991,-9.76074 0,-2.32291 0.5286,-4.44481 1.5858,-6.3657 1.0573,-1.92086 2.4421,-3.46203 4.1545,-4.62351 1.7124,-1.16144 3.6407,-2.03998 5.785,-2.63563 1.5784,-0.4169 3.9608,-0.81895 7.1474,-1.20613 6.4923,-0.77428 11.2721,-1.69749 14.3396,-2.76964 0.03,-1.10187 0.045,-1.80172 0.045,-2.09956 -10e-5,-3.27588 -0.7595,-5.58391 -2.2783,-6.9241 -2.0549,-1.8166 -5.1075,-2.72492 -9.1576,-2.72497 -3.7823,5e-5 -6.5742,0.66267 -8.376,1.98789 -1.8017,1.32529 -3.1344,3.67055 -3.9981,7.03577 l -7.8622,-1.07211 c 0.7148,-3.36523 1.8911,-6.08275 3.5291,-8.15257 1.6379,-2.06974 4.0055,-3.66302 7.1028,-4.77986 3.0972,-1.11674 6.6858,-1.67514 10.7658,-1.67518 4.0502,4e-5 7.341,0.47654 9.8724,1.42949 2.5314,0.95304 4.3927,2.15172 5.584,3.59606 1.1912,1.44442 2.0251,3.26851 2.5016,5.47227 0.268,1.36997 0.402,3.84179 0.402,7.41548 l 0,10.72119 c 0,7.47505 0.1712,12.20279 0.5138,14.18323 0.3424,1.98044 1.0199,3.87898 2.0325,5.69562 l -8.3982,0 c -0.834,-1.66773 -1.37,-3.61839 -1.6082,-5.85197 z m -0.6701,-17.95798 c -2.9186,1.19126 -7.2964,2.20382 -13.1334,3.03766 -3.3058,0.47652 -5.6436,1.01258 -7.0135,1.60818 -1.3699,0.59564 -2.4272,1.46674 -3.1717,2.61329 -0.7445,1.14659 -1.1168,2.41973 -1.1168,3.81942 0,2.14425 0.8116,3.93111 2.4346,5.36059 1.6231,1.4295 3.9981,2.14424 7.1252,2.14424 3.0972,0 5.8519,-0.67752 8.2642,-2.03256 2.4122,-1.35503 4.1842,-3.2089 5.3159,-5.56161 0.8636,-1.81663 1.2955,-4.49693 1.2955,-8.04089 z"
         style=""
         id="path3060" />
      <path
         d="m 1448.1631,511.93893 0,-47.44123 7.2368,0 0,6.74541 c 3.4843,-5.21164 8.5173,-7.81748 15.099,-7.81752 2.8589,4e-5 5.4871,0.51377 7.8845,1.54117 2.3973,1.02749 4.1917,2.37508 5.3829,4.04278 1.1912,1.66778 2.0251,3.64821 2.5016,5.94132 0.2978,1.48909 0.4467,4.09493 0.4468,7.81753 l 0,29.17054 -8.0409,0 0,-28.85784 c -10e-5,-3.27589 -0.3128,-5.72538 -0.9381,-7.34848 -0.6255,-1.62303 -1.7348,-2.91851 -3.3281,-3.88643 -1.5933,-0.96784 -3.462,-1.45178 -5.6062,-1.45183 -3.4249,5e-5 -6.3807,1.08705 -8.8674,3.26103 -2.4867,2.17405 -3.73,6.29873 -3.73,12.37403 l 0,25.90952 z"
         style=""
         id="path3062" />
      <path
         d="m 1495.8723,497.77804 7.9516,-1.2508 c 0.4467,3.18658 1.69,5.62863 3.7301,7.32614 2.0399,1.69752 4.8915,2.54628 8.5546,2.54628 3.6928,0 6.4326,-0.75197 8.2195,-2.25592 1.7869,-1.50393 2.6803,-3.26846 2.6803,-5.29358 0,-1.81663 -0.7892,-3.24612 -2.3676,-4.28847 -1.1019,-0.71473 -3.8417,-1.62305 -8.2195,-2.72497 -5.8967,-1.48903 -9.9841,-2.77706 -12.2624,-3.86409 -2.2782,-1.08699 -4.0055,-2.59093 -5.1819,-4.51184 -1.1763,-1.92084 -1.7645,-4.04274 -1.7645,-6.3657 0,-2.11442 0.4839,-4.07252 1.4518,-5.87431 0.9679,-1.80171 2.2857,-3.29821 3.9534,-4.4895 1.2508,-0.92316 2.9558,-1.70491 5.1149,-2.34525 2.1592,-0.64025 4.4746,-0.9604 6.9465,-0.96044 3.7226,4e-5 6.9911,0.5361 9.8054,1.60817 2.8143,1.07217 4.8915,2.52399 6.2317,4.35548 1.3401,1.83158 2.2633,4.28107 2.7696,7.34848 l -7.8622,1.07212 c -0.3574,-2.44201 -1.3923,-4.348 -3.1047,-5.71797 -1.7124,-1.36988 -4.1321,-2.05485 -7.2591,-2.05489 -3.6929,4e-5 -6.3285,0.61055 -7.9069,1.83154 -1.5784,1.22106 -2.3676,2.65055 -2.3676,4.28847 0,1.04237 0.3276,1.98047 0.9828,2.81431 0.6552,0.86368 1.6826,1.57843 3.0824,2.14424 0.804,0.29784 3.1716,0.9828 7.1027,2.05489 5.6882,1.51886 9.6565,2.76222 11.905,3.73008 2.2485,0.96791 4.013,2.37506 5.2936,4.22146 1.2805,1.84645 1.9208,4.13959 1.9209,6.87943 -10e-5,2.6803 -0.7818,5.20425 -2.3453,7.57183 -1.5635,2.3676 -3.8194,4.19913 -6.7677,5.49461 -2.9484,1.29547 -6.2839,1.94321 -10.0065,1.94321 -6.1647,0 -10.8626,-1.28058 -14.0938,-3.84175 -3.2313,-2.56117 -5.2936,-6.35825 -6.1871,-11.39126 z"
         style=""
         id="path3064" />
      <path
         d="m 1562.3883,504.74681 1.1615,7.10278 c -2.2634,0.4765 -4.2885,0.71475 -6.0753,0.71475 -2.9186,0 -5.182,-0.46161 -6.7901,-1.38482 -1.6082,-0.92321 -2.7399,-2.13679 -3.3951,-3.64074 -0.6552,-1.50394 -0.9828,-4.66817 -0.9827,-9.49271 l 0,-27.29434 -5.8967,0 0,-6.25403 5.8967,0 0,-11.74862 7.9962,-4.82454 0,16.57316 8.0855,0 0,6.25403 -8.0855,0 0,27.74106 c 0,2.29315 0.1414,3.76731 0.4243,4.42248 0.283,0.65519 0.7446,1.17636 1.3849,1.56351 0.6402,0.38716 1.556,0.58074 2.7473,0.58073 0.8934,1e-5 2.0697,-0.10423 3.529,-0.3127 z"
         style=""
         id="path3066" />
      <path
         d="m 1602.6821,496.66125 8.3089,1.02745 c -1.3104,4.85432 -3.7375,8.62162 -7.2814,11.30191 -3.544,2.6803 -8.0707,4.02044 -13.5802,4.02044 -6.939,0 -12.4411,-2.13679 -16.5062,-6.41037 -4.0651,-4.27357 -6.0976,-10.26701 -6.0976,-17.98032 0,-7.98129 2.0549,-14.17574 6.1647,-18.58338 4.1097,-4.40755 9.4405,-6.61135 15.9924,-6.61139 6.3433,4e-5 11.5252,2.15917 15.5457,6.47738 4.0204,4.31829 6.0306,10.39362 6.0307,18.22601 -10e-5,0.47652 -0.015,1.19126 -0.045,2.14423 l -35.3799,0 c 0.2978,5.2117 1.7719,9.20236 4.4225,11.97199 2.6505,2.76964 5.9562,4.15446 9.9171,4.15446 2.9483,0 5.4648,-0.7743 7.5495,-2.32293 2.0846,-1.5486 3.7375,-4.02043 4.9585,-7.41548 z m -26.4009,-12.99943 26.4903,0 c -0.3575,-3.99063 -1.37,-6.98363 -3.0377,-8.97899 -2.5612,-3.09719 -5.8818,-4.64581 -9.9618,-4.64585 -3.6929,4e-5 -6.7975,1.23596 -9.314,3.70774 -2.5165,2.47187 -3.9088,5.77756 -4.1768,9.9171 z"
         style=""
         id="path3068" />
      <path
         d="m 1621.0421,511.93893 0,-47.44123 7.2368,0 0,7.19213 c 1.8464,-3.36522 3.5514,-5.5839 5.1149,-6.65607 1.5635,-1.07207 3.2834,-1.60813 5.1596,-1.60817 2.71,4e-5 5.4648,0.86369 8.2642,2.59095 l -2.7696,7.46015 c -1.9656,-1.16142 -3.9311,-1.74215 -5.8967,-1.74219 -1.7571,4e-5 -3.3355,0.52866 -4.7351,1.58584 -1.3998,1.05727 -2.3974,2.52398 -2.993,4.40016 -0.8935,2.85901 -1.3402,5.98602 -1.3402,9.38103 l 0,24.8374 z"
         style=""
         id="path3070" />
      <path
         d="m 1653.9651,511.93893 0,-9.15767 9.1577,0 0,9.15767 z"
         style=""
         id="path3072" />
      <path
         d="m 1684.4758,511.93893 -7.4602,0 0,-65.48855 8.0409,0 0,23.36324 c 3.395,-4.25864 7.7282,-6.38799 12.9994,-6.38803 2.9186,4e-5 5.6808,0.58822 8.2866,1.76452 2.6058,1.1764 4.7501,2.82925 6.4327,4.95855 1.6826,2.12939 3.0004,4.698 3.9535,7.70585 0.9529,3.00792 1.4294,6.22427 1.4295,9.64906 -10e-5,8.13025 -2.0103,14.41405 -6.0307,18.85142 -4.0205,4.43737 -8.845,6.65606 -14.4736,6.65606 -5.5989,0 -9.9916,-2.33781 -13.1781,-7.01344 z m -0.089,-24.07798 c 0,5.6882 0.7743,9.79798 2.323,12.32936 2.5313,4.13957 5.9562,6.20935 10.2744,6.20935 3.5142,0 6.5518,-1.52628 9.113,-4.57884 2.5612,-3.05255 3.8417,-7.6016 3.8418,-13.64717 -10e-5,-6.19443 -1.2285,-10.76582 -3.6854,-13.71418 -2.457,-2.94829 -5.4276,-4.42245 -8.912,-4.42249 -3.5142,4e-5 -6.5519,1.52632 -9.113,4.57884 -2.5612,3.05259 -3.8418,7.46763 -3.8418,13.24513 z"
         style=""
         id="path3074" />
      <path
         d="m 1727.6286,530.20962 -0.8935,-7.5495 c 1.7571,0.47648 3.2908,0.71473 4.6012,0.71474 1.7868,-10e-6 3.2163,-0.29782 4.2885,-0.89343 1.0721,-0.59563 1.9506,-1.4295 2.6356,-2.50161 0.5063,-0.8041 1.3252,-2.79942 2.4569,-5.98599 0.1489,-0.44672 0.3872,-1.1019 0.7148,-1.96555 l -18.0027,-47.53058 8.6663,0 9.8724,27.47303 c 1.2806,3.4844 2.4272,7.14747 3.4397,10.98921 0.9232,-3.69283 2.0251,-7.29634 3.3057,-10.81052 l 10.1405,-27.65172 8.0409,0 -18.0473,48.24532 c -1.9358,5.21168 -3.4398,8.8003 -4.5119,10.76586 -1.4295,2.6505 -3.0674,4.59371 -4.9138,5.82964 -1.8465,1.23589 -4.0503,1.85385 -6.6114,1.85387 -1.5487,-2e-5 -3.276,-0.32761 -5.1819,-0.98277 z"
         style=""
         id="path3076" />
    </g>
    <g
       style="font-size:285.77505493px;font-style:normal;font-weight:normal;line-height:125%;letter-spacing:0px;word-spacing:0px;fill:#1a1a1a;fill-opacity:1;stroke:none;font-family:Sans"
       id="text3307">
      <path
         d="m 203.72362,431.34424 -23.30294,0 0,-204.56359 25.11694,0 0,72.97869 c 10.60488,-13.30254 24.14011,-19.95387 40.60574,-19.95402 9.11643,1.5e-4 17.74455,1.83741 25.88441,5.51177 8.13963,3.67466 14.83748,8.83758 20.09356,15.48879 5.25581,6.65146 9.3722,14.67492 12.34916,24.07041 2.97668,9.39569 4.46509,19.44246 4.46524,30.14033 -1.5e-4,25.39608 -6.27938,45.02449 -18.83771,58.88529 -12.55859,13.86084 -27.62875,20.79125 -45.21051,20.79125 -17.4889,0 -31.21019,-7.30251 -41.16389,-21.90756 z m -0.27907,-75.21131 c -5e-5,17.76797 2.41862,30.60551 7.256,38.51266 7.90713,12.9306 18.60508,19.39588 32.09388,19.39586 10.97695,2e-5 20.46556,-4.76755 28.46588,-14.3027 8.00009,-9.5351 12.00019,-23.74477 12.00032,-42.62905 -1.3e-4,-19.34926 -3.83743,-33.62869 -11.51194,-42.83835 -7.67472,-9.20942 -16.95403,-13.81419 -27.83795,-13.81432 -10.97711,1.3e-4 -20.46572,4.7677 -28.46587,14.30271 -8.00026,9.53524 -12.00037,23.32629 -12.00032,41.37319 z"
         style=""
         id="path3049" />
      <path
         d="m 441.07878,383.62204 25.95418,3.20938 c -4.09327,15.16323 -11.67486,26.93097 -22.74479,35.30327 -11.07017,8.37232 -25.21007,12.55847 -42.41973,12.55847 -21.67506,0 -38.86155,-6.67459 -51.55952,-20.02378 -12.69803,-13.34917 -19.04703,-32.07058 -19.04702,-56.16429 -1e-5,-24.9308 6.41876,-44.28013 19.25633,-58.04806 12.83751,-13.76766 29.4891,-20.65156 49.95482,-20.65171 19.81438,1.5e-4 36.00084,6.74451 48.55943,20.23309 12.55834,13.48885 18.83757,32.46608 18.83771,56.93175 -1.4e-4,1.48849 -0.0467,3.7211 -0.13953,6.69786 l -110.51458,0 c 0.93022,16.27955 5.53499,28.74499 13.81433,37.39634 8.27923,8.65142 18.60507,12.97711 30.97756,12.97709 9.20946,2e-5 17.07013,-2.41865 23.58203,-7.25601 6.51169,-4.8373 11.67461,-12.55843 15.48878,-23.1634 z m -82.46731,-40.60574 82.74639,0 c -1.11643,-12.46534 -4.2793,-21.81442 -9.48862,-28.04725 -8.00032,-9.67456 -18.37268,-14.51189 -31.11711,-14.51202 -11.53526,1.3e-4 -21.23319,3.8607 -29.0938,11.5817 -7.86072,7.72125 -12.20967,18.0471 -13.04686,30.97757 z"
         style=""
         id="path3051" />
    </g>
    <g
       style="font-size:229.64520264px;font-style:normal;font-weight:normal;line-height:125%;letter-spacing:0px;word-spacing:0px;fill:#1a1a1a;fill-opacity:1;stroke:none;font-family:Sans"
       id="text3311">
      <path
         d="m 182.29659,596.93109 0,-119.08359 18.05316,0 0,16.70758 c 3.73768,-5.83073 8.70884,-10.52155 14.91348,-14.0725 6.20456,-3.55071 13.26883,-5.32612 21.19285,-5.32624 8.82093,1.2e-4 16.0534,1.8316 21.69743,5.49444 5.64386,3.66307 9.62452,8.78374 11.942,15.36201 9.41893,-13.90419 21.67862,-20.85633 36.77912,-20.85645 11.81102,1.2e-4 20.89366,3.27062 27.24794,9.8115 6.35394,6.54111 9.53099,16.61424 9.53117,30.21943 l 0,81.74382 -20.07153,0 0,-75.01594 c -1.5e-4,-8.07338 -0.65425,-13.88552 -1.9623,-17.43644 -1.30835,-3.55073 -3.6818,-6.41008 -7.12035,-8.57805 -3.43884,-2.16777 -7.47556,-3.25171 -12.11019,-3.25181 -8.37261,1e-4 -15.32475,2.7847 -20.85645,8.35379 -5.53193,5.56928 -8.29783,14.48373 -8.29773,26.74335 l 0,69.1851 -20.18366,0 0,-77.3707 c -8e-5,-8.97043 -1.64468,-15.69831 -4.93378,-20.18366 -3.28927,-4.48515 -8.67157,-6.72778 -16.14693,-6.72788 -5.68139,1e-4 -10.93287,1.49518 -15.75447,4.48525 -4.82169,2.99027 -8.31645,7.36339 -10.48429,13.11938 -2.16791,5.75616 -3.25185,14.05388 -3.25181,24.89318 l 0,61.78443 z"
         style=""
         id="path3040" />
      <path
         d="m 455.33666,558.58214 20.85645,2.57902 c -3.28931,12.18497 -9.38177,21.64138 -18.27743,28.36926 -8.89585,6.72788 -20.25849,10.09182 -34.08796,10.09183 -17.4178,-10e-6 -31.22864,-5.36362 -41.43257,-16.09087 -10.20397,-10.72721 -15.30595,-25.7715 -15.30594,-45.1329 -10e-6,-20.03408 5.15803,-35.58296 15.47414,-46.64669 10.31606,-11.06352 23.69706,-16.59533 40.14306,-16.59545 15.92258,1.2e-4 28.92982,5.4198 39.02174,16.25906 10.09172,10.83947 15.13763,26.08933 15.13775,45.74963 -1.2e-4,1.19613 -0.0375,2.99023 -0.11213,5.38231 l -88.80811,0 c 0.74751,13.08204 4.44785,23.09911 11.10101,30.05123 6.65309,6.95216 14.95081,10.42824 24.89318,10.42822 7.40061,2e-5 13.71734,-1.94359 18.95022,-5.83083 5.23271,-3.8872 9.38157,-10.0918 12.44659,-18.61382 z m -66.26969,-32.63025 66.49395,0 c -0.89715,-10.017 -3.43879,-17.5298 -7.62494,-22.53843 -6.42895,-7.77434 -14.76404,-11.66156 -25.00531,-11.66167 -9.26959,1.1e-4 -17.06271,3.10241 -23.37941,9.30691 -6.31677,6.2047 -9.81153,14.50242 -10.48429,24.89319 z"
         style=""
         id="path3042" />
      <path
         d="m 493.57347,561.38542 19.95939,-3.13968 c 1.12129,7.99874 4.24228,14.12859 9.36298,18.38956 5.12063,4.26101 12.27834,6.39151 21.47317,6.39149 9.26947,2e-5 16.14686,-1.88753 20.63219,-5.66264 4.48517,-3.77506 6.7278,-8.20425 6.72789,-13.28757 -9e-5,-4.55998 -1.98108,-8.14818 -5.94297,-10.76462 -2.76599,-1.79406 -9.64338,-4.07406 -20.63219,-6.84002 -14.80139,-3.73766 -25.06141,-6.97078 -30.78008,-9.69937 -5.71873,-2.72847 -10.05447,-6.50356 -13.00725,-11.32528 -2.9528,-4.82157 -4.4292,-10.14781 -4.42919,-15.97873 -10e-6,-5.30746 1.21475,-10.22255 3.64427,-14.74528 2.4295,-4.52253 5.73737,-8.27893 9.92364,-11.26921 3.13965,-2.31727 7.41933,-4.27957 12.83905,-5.8869 5.41964,-1.6071 11.23178,-2.41071 17.43644,-2.41083 9.34422,1.2e-4 17.5485,1.3457 24.61285,4.03673 7.06419,2.69127 12.2783,6.33554 15.64234,10.93282 3.36384,4.59749 5.68122,10.74602 6.95214,18.44562 l -19.73513,2.69116 c -0.89713,-6.12976 -3.49484,-10.91403 -7.79314,-14.35283 -4.29844,-3.43859 -10.37222,-5.15794 -18.22136,-5.15805 -9.26957,1.1e-4 -15.88532,1.53257 -19.84726,4.59739 -3.96201,3.06503 -5.943,6.65323 -5.94297,10.76462 -3e-5,2.61649 0.82227,4.97125 2.46689,7.06428 1.64456,2.16796 4.22359,3.96206 7.73707,5.38231 2.01833,0.74762 7.96129,2.46697 17.8289,5.15805 14.278,3.81254 24.239,6.93353 29.88303,9.36298 5.64386,2.42957 10.07305,5.96171 13.28758,10.59642 3.21433,4.63481 4.82155,10.39089 4.82165,17.26824 -10e-5,6.72792 -1.9624,13.06334 -5.8869,19.00628 -3.92469,5.94298 -9.58733,10.54036 -16.98791,13.79217 -7.40075,3.25181 -15.77323,4.87771 -25.11745,4.87772 -15.47418,-10e-6 -27.26666,-3.21444 -35.37747,-9.64331 -8.11085,-6.42885 -13.28758,-15.96002 -15.5302,-28.59352 z"
         style=""
         id="path3044" />
      <path
         d="m 616.46956,596.93109 0,-164.3847 20.18366,0 0,58.98114 c 9.419,-10.91401 21.30492,-16.37107 35.6578,-16.37119 8.82093,1.2e-4 16.48324,1.73816 22.98695,5.21411 6.50352,3.47619 11.15697,8.27915 13.96036,14.40889 2.80318,6.12995 4.20482,15.0257 4.20493,26.68729 l 0,75.46446 -20.18366,0 0,-75.46446 c -9e-5,-10.09175 -2.18665,-17.43635 -6.55969,-22.03383 -4.3732,-4.59729 -10.55912,-6.89598 -18.55775,-6.89609 -5.9804,1.1e-4 -11.60566,1.55126 -16.87578,4.65346 -5.27023,3.1024 -9.02663,7.30732 -11.26921,12.61479 -2.24267,5.30763 -3.36398,12.63355 -3.36395,21.97776 l 0,65.14837 z"
         style=""
         id="path3046" />
    </g>
  </g>
</svg>
