<?xml version="1.0" encoding="UTF-8" standalone="no"?>
<!-- Created with Inkscape (http://www.inkscape.org/) -->

<svg
   xmlns:dc="http://purl.org/dc/elements/1.1/"
   xmlns:cc="http://creativecommons.org/ns#"
   xmlns:rdf="http://www.w3.org/1999/02/22-rdf-syntax-ns#"
   xmlns:svg="http://www.w3.org/2000/svg"
   xmlns="http://www.w3.org/2000/svg"
   xmlns:sodipodi="http://sodipodi.sourceforge.net/DTD/sodipodi-0.dtd"
   xmlns:inkscape="http://www.inkscape.org/namespaces/inkscape"
   width="744.09448819"
   height="1052.3622047"
   id="svg2"
   version="1.1"
   inkscape:version="0.48.2 r9819"
   sodipodi:docname="nalepka_7_en.svg"
   inkscape:export-filename="/home/svet/Dropbox/falanster/mesh/stickers/en_stickers/nalepka_7_en.png"
   inkscape:export-xdpi="90"
   inkscape:export-ydpi="90">
  <defs
     id="defs4">
    <clipPath
       clipPathUnits="userSpaceOnUse"
       id="clipPath4444">
      <path
         inkscape:connector-curvature="0"
         d="M 0,0 612,0 612,792 0,792 0,0 z"
         id="path4446" />
    </clipPath>
    <clipPath
       clipPathUnits="userSpaceOnUse"
       id="clipPath4428">
      <path
         inkscape:connector-curvature="0"
         d="M 0,0 612,0 612,792 0,792 0,0 z"
         id="path4430" />
    </clipPath>
    <clipPath
       id="clipPath3058"
       clipPathUnits="userSpaceOnUse">
      <path
         id="path3060"
         d="M 0,0 612,0 612,792 0,792 0,0 z"
         inkscape:connector-curvature="0" />
    </clipPath>
    <clipPath
       clipPathUnits="userSpaceOnUse"
       id="clipPath18">
      <path
         d="M 0,792 612,792 612,0 0,0 0,792 z"
         id="path20"
         inkscape:connector-curvature="0" />
    </clipPath>
    <clipPath
       clipPathUnits="userSpaceOnUse"
       id="clipPath56">
      <path
         d="M 0,792 612,792 612,0 0,0 0,792 z"
         id="path58"
         inkscape:connector-curvature="0" />
    </clipPath>
    <clipPath
       clipPathUnits="userSpaceOnUse"
       id="clipPath764">
      <path
         d="m 60.155,472.06 69.989,0 0,66.345 -69.989,0 0,-66.345 z"
         id="path766"
         inkscape:connector-curvature="0" />
    </clipPath>
    <clipPath
       clipPathUnits="userSpaceOnUse"
       id="clipPath778">
      <path
         d="m 36.4,393.12 131.681,0 0,76.32 -131.681,0 0,-76.32 z"
         id="path780"
         inkscape:connector-curvature="0" />
    </clipPath>
    <clipPath
       clipPathUnits="userSpaceOnUse"
       id="clipPath790">
      <path
         d="m 36.8,315.8 131.68,0 0,76.32 -131.68,0 0,-76.32 z"
         id="path792"
         inkscape:connector-curvature="0" />
    </clipPath>
    <clipPath
       clipPathUnits="userSpaceOnUse"
       id="clipPath840">
      <path
         d="M 69.28,123.822 103.922,95.77 127.967,125.464 93.326,153.516 69.28,123.822 z"
         id="path842"
         inkscape:connector-curvature="0" />
    </clipPath>
    <clipPath
       clipPathUnits="userSpaceOnUse"
       id="clipPath868">
      <path
         d="m 36,239.48 132.48,0 0,76.32 -132.48,0 0,-76.32 z"
         id="path870"
         inkscape:connector-curvature="0" />
    </clipPath>
    <clipPath
       clipPathUnits="userSpaceOnUse"
       id="clipPath934">
      <path
         d="m 54.72,168.729 65.071,0 0,62.585 -65.071,0 0,-62.585 z"
         id="path936"
         inkscape:connector-curvature="0" />
    </clipPath>
  </defs>
  <sodipodi:namedview
     id="base"
     pagecolor="#ffffff"
     bordercolor="#666666"
     borderopacity="1.0"
     inkscape:pageopacity="0.0"
     inkscape:pageshadow="2"
     inkscape:zoom="0.35"
     inkscape:cx="375"
     inkscape:cy="175.73481"
     inkscape:document-units="px"
     inkscape:current-layer="layer1"
     showgrid="false"
     inkscape:window-width="1366"
     inkscape:window-height="706"
     inkscape:window-x="-8"
     inkscape:window-y="-8"
     inkscape:window-maximized="1"
     showguides="true"
     inkscape:guide-bbox="true" />
  <metadata
     id="metadata7">
    <rdf:RDF>
      <cc:Work
         rdf:about="">
        <dc:format>image/svg+xml</dc:format>
        <dc:type
           rdf:resource="http://purl.org/dc/dcmitype/StillImage" />
        <dc:title></dc:title>
      </cc:Work>
    </rdf:RDF>
  </metadata>
  <g
     inkscape:label="Layer 1"
     inkscape:groupmode="layer"
     id="layer1">
    <rect
       style="fill:#0000ff;fill-opacity:1;stroke:#0000ff;stroke-width:30.02860069;stroke-linecap:round;stroke-linejoin:round;stroke-miterlimit:4;stroke-opacity:1;stroke-dasharray:none"
       id="rect5517"
       width="1469.9714"
       height="1469.9714"
       x="-88.199959"
       y="153.44791" />
    <g
       transform="matrix(4.7574865,0,0,4.7574865,-929.62231,-987.44726)"
       id="layer1-0"
       inkscape:label="Layer 1"
       inkscape:export-filename="/home/andygunn/Commotion/Construction Kit/Graphic Assets/Pair_of_installers.png"
       inkscape:export-xdpi="27.59"
       inkscape:export-ydpi="27.59">
      <g
         id="g4023"
         transform="matrix(4.0135444,0,0,4.0135444,31.703737,-1820.7701)">
        <g
           id="g1944"
           transform="matrix(1.25,0,0,-1.25,110.46796,542.95031)">
          <path
             inkscape:connector-curvature="0"
             d="m 0,0 -16.244,6.606 c 2.977,0.792 5.173,3.496 5.173,6.722 0,3.846 -3.117,6.963 -6.964,6.963 -3.843,0 -6.959,-3.117 -6.959,-6.963 0,-3.262 2.244,-5.991 5.268,-6.747 l -2.556,-1.04 c -0.06,-0.025 -0.122,-0.048 -0.181,-0.073 L -35.907,0 c -1.17,-0.477 -1.732,-1.813 -1.257,-2.98 0.476,-1.172 1.812,-1.733 2.98,-1.256 l 8.245,3.351 0,-16.653 0.943,0 0,-15.525 c 0,-1.262 1.025,-2.287 2.287,-2.287 1.264,0 2.288,1.025 2.288,2.287 l 0,15.525 4.776,0 0,-15.525 c 0,-1.262 1.024,-2.287 2.287,-2.287 1.263,0 2.288,1.025 2.288,2.287 l 0,15.525 0.942,0 0,16.719 8.405,-3.417 c 1.168,-0.477 2.504,0.084 2.98,1.256 C 1.732,-1.813 1.169,-0.477 0,0"
             style="fill:#241f21;fill-opacity:1;fill-rule:nonzero;stroke:none"
             id="path1946" />
        </g>
        <g
           id="g1948"
           transform="matrix(1.25,0,0,-1.25,88.089958,547.24106)">
          <path
             inkscape:connector-curvature="0"
             d="m 0,0 c 0.416,0.81 0.811,1.226 1.619,1.226 0.897,0 1.619,-0.723 1.619,-1.62 0,-1.619 -1.619,-3.259 -3.238,-4.878 -1.619,1.619 -3.238,3.259 -3.238,4.878 0,0.897 0.721,1.62 1.619,1.62 C -0.811,1.226 -0.393,0.81 0,0"
             style="fill:#ffffff;fill-opacity:1;fill-rule:nonzero;stroke:none"
             id="path1950" />
        </g>
      </g>
    </g>
    <text
       xml:space="preserve"
       style="font-size:57.33788681px;font-style:normal;font-weight:normal;line-height:125%;letter-spacing:0px;word-spacing:0px;fill:#000000;fill-opacity:1;stroke:none;font-family:Sans"
       x="162.48529"
       y="1787.4099"
       id="text3261"
       sodipodi:linespacing="125%"><tspan
         sodipodi:role="line"
         id="tspan3263"
         x="162.48529"
         y="1787.4099" /></text>
    <g
       transform="matrix(4.1999756e-4,-0.99999991,0.99999991,4.1999756e-4,0,0)"
       style="font-size:79.14154816px;font-style:normal;font-weight:normal;line-height:125%;letter-spacing:0px;word-spacing:0px;fill:#00ffff;fill-opacity:1;stroke:none;font-family:Sans"
       id="text3287">
      <path
         d="m -636.31509,1325.2142 0,-35.6291 -6.14429,0 0,-5.4101 6.14429,0 0,-4.3667 c -10e-6,-2.7565 0.24473,-4.8046 0.73422,-6.1443 0.66981,-1.8033 1.84843,-3.2653 3.53587,-4.386 1.68741,-1.1206 4.05109,-1.6809 7.09105,-1.681 1.95791,10e-5 4.12193,0.2319 6.49208,0.6956 l -1.04337,6.067 c -1.44271,-0.2576 -2.8081,-0.3864 -4.09619,-0.3864 -2.11252,0 -3.60673,0.4509 -4.48263,1.3525 -0.87593,0.9017 -1.31389,2.5891 -1.31387,5.0623 l 0,3.787 7.99917,0 0,5.4101 -7.99917,0 0,35.6291 z"
         style=""
         id="path3727" />
      <path
         d="m -589.24751,1320.152 c -2.57625,2.1897 -5.05586,3.7355 -7.43884,4.6372 -2.38303,0.9016 -4.93993,1.3525 -7.6707,1.3525 -4.5084,0 -7.97342,-1.1014 -10.39506,-3.304 -2.42165,-2.2027 -3.63248,-5.0172 -3.63247,-8.4436 -10e-6,-2.0094 0.45727,-3.845 1.37183,-5.5067 0.91456,-1.6616 2.1125,-2.9948 3.59383,-3.9996 1.48132,-1.0047 3.14943,-1.7647 5.00432,-2.2799 1.36538,-0.3607 3.42636,-0.7085 6.18293,-1.0434 5.61614,-0.6698 9.75097,-1.4684 12.40451,-2.3959 0.0257,-0.9531 0.0386,-1.5586 0.0386,-1.8162 -3e-5,-2.8338 -0.65696,-4.8304 -1.97081,-5.9897 -1.77762,-1.5715 -4.41824,-2.3572 -7.92188,-2.3573 -3.27182,10e-5 -5.68703,0.5733 -7.24562,1.7197 -1.55863,1.1464 -2.71149,3.1752 -3.45858,6.0863 l -6.80123,-0.9275 c 0.61829,-2.9111 1.6359,-5.2619 3.05282,-7.0524 1.41692,-1.7904 3.46501,-3.1687 6.14429,-4.1348 2.67926,-0.966 5.7836,-1.4491 9.31305,-1.4491 3.50363,0 6.35036,0.4122 8.54017,1.2366 2.18976,0.8244 3.7999,1.8613 4.83042,3.1107 1.03045,1.2496 1.75179,2.8275 2.16403,4.7339 0.23182,1.1851 0.34775,3.3233 0.34779,6.4147 l 0,9.2744 c -4e-5,6.4664 0.14809,10.5561 0.4444,12.2693 0.29622,1.7132 0.88231,3.3555 1.75827,4.927 l -7.26495,0 c -0.72137,-1.4426 -1.18509,-3.1301 -1.39116,-5.0622 z m -0.57965,-15.5347 c -2.52473,1.0305 -6.31177,1.9065 -11.36114,2.6278 -2.85962,0.4122 -4.88196,0.8759 -6.067,1.3911 -1.18508,0.5153 -2.09964,1.2688 -2.74368,2.2607 -0.64407,0.9918 -0.96609,2.0932 -0.96608,3.304 -10e-6,1.8549 0.70201,3.4006 2.10606,4.6372 1.40403,1.2366 3.45856,1.8549 6.16361,1.8549 2.67925,0 5.06225,-0.5861 7.14902,-1.7583 2.08671,-1.1722 3.61956,-2.7759 4.59855,-4.8111 0.74708,-1.5715 1.12063,-3.8901 1.12066,-6.9558 z"
         style=""
         id="path3729" />
      <path
         d="m -572.12851,1325.2142 0,-56.6511 6.9558,0 0,56.6511 z"
         style=""
         id="path3731" />
      <path
         d="m -527.57275,1320.152 c -2.57625,2.1897 -5.05586,3.7355 -7.43884,4.6372 -2.38303,0.9016 -4.93992,1.3525 -7.6707,1.3525 -4.5084,0 -7.97342,-1.1014 -10.39506,-3.304 -2.42165,-2.2027 -3.63247,-5.0172 -3.63247,-8.4436 0,-2.0094 0.45728,-3.845 1.37184,-5.5067 0.91455,-1.6616 2.11249,-2.9948 3.59383,-3.9996 1.48132,-1.0047 3.14942,-1.7647 5.00431,-2.2799 1.36538,-0.3607 3.42636,-0.7085 6.18293,-1.0434 5.61614,-0.6698 9.75098,-1.4684 12.40451,-2.3959 0.0257,-0.9531 0.0386,-1.5586 0.0386,-1.8162 -4e-5,-2.8338 -0.65697,-4.8304 -1.97081,-5.9897 -1.77762,-1.5715 -4.41825,-2.3572 -7.92189,-2.3573 -3.27182,10e-5 -5.68702,0.5733 -7.24562,1.7197 -1.55863,1.1464 -2.71149,3.1752 -3.45858,6.0863 l -6.80123,-0.9275 c 0.61829,-2.9111 1.6359,-5.2619 3.05283,-7.0524 1.41691,-1.7904 3.465,-3.1687 6.14429,-4.1348 2.67925,-0.966 5.7836,-1.4491 9.31304,-1.4491 3.50364,0 6.35036,0.4122 8.54018,1.2366 2.18975,0.8244 3.79989,1.8613 4.83041,3.1107 1.03046,1.2496 1.7518,2.8275 2.16403,4.7339 0.23182,1.1851 0.34775,3.3233 0.34779,6.4147 l 0,9.2744 c -4e-5,6.4664 0.14809,10.5561 0.4444,12.2693 0.29622,1.7132 0.88231,3.3555 1.75827,4.927 l -7.26495,0 c -0.72137,-1.4426 -1.18509,-3.1301 -1.39116,-5.0622 z m -0.57965,-15.5347 c -2.52472,1.0305 -6.31177,1.9065 -11.36114,2.6278 -2.85962,0.4122 -4.88195,0.8759 -6.067,1.3911 -1.18508,0.5153 -2.09963,1.2688 -2.74368,2.2607 -0.64406,0.9918 -0.96609,2.0932 -0.96608,3.304 -10e-6,1.8549 0.70201,3.4006 2.10606,4.6372 1.40403,1.2366 3.45856,1.8549 6.16361,1.8549 2.67925,0 5.06226,-0.5861 7.14902,-1.7583 2.08671,-1.1722 3.61956,-2.7759 4.59856,-4.8111 0.74707,-1.5715 1.12062,-3.8901 1.12065,-6.9558 z"
         style=""
         id="path3733" />
      <path
         d="m -510.29917,1325.2142 0,-41.0392 6.26022,0 0,5.8352 c 3.01416,-4.5084 7.36798,-6.7626 13.06145,-6.7626 2.47314,0 4.74666,0.4444 6.82054,1.3332 2.07383,0.8888 3.626,2.0545 4.65653,3.4972 1.03045,1.4427 1.75179,3.1559 2.16402,5.1396 0.25759,1.2881 0.3864,3.5423 0.38644,6.7625 l 0,25.2341 -6.9558,0 0,-24.9636 c -4e-5,-2.8338 -0.27054,-4.9527 -0.81151,-6.3568 -0.54104,-1.404 -1.50068,-2.5247 -2.87893,-3.362 -1.37831,-0.8372 -2.99489,-1.2558 -4.84974,-1.2559 -2.96268,10e-5 -5.51958,0.9404 -7.6707,2.821 -2.15116,1.8807 -3.22673,5.4487 -3.22672,10.7042 l 0,22.4131 z"
         style=""
         id="path3735" />
      <path
         d="m -469.02809,1312.9643 6.87852,-1.082 c 0.38642,2.7566 1.46199,4.8691 3.22672,6.3375 1.76469,1.4684 4.23142,2.2027 7.40019,2.2027 3.1945,0 5.56462,-0.6505 7.11038,-1.9515 1.5457,-1.301 2.31857,-2.8274 2.3186,-4.5793 -3e-5,-1.5714 -0.68273,-2.808 -2.0481,-3.7097 -0.95323,-0.6183 -3.32335,-1.404 -7.11037,-2.3573 -5.10094,-1.2881 -8.6368,-2.4023 -10.6076,-3.3426 -1.97082,-0.9403 -3.46502,-2.2413 -4.48262,-3.903 -1.01762,-1.6616 -1.52642,-3.4972 -1.52642,-5.5067 0,-1.8291 0.41864,-3.5229 1.25591,-5.0816 0.83727,-1.5585 1.97725,-2.8531 3.41994,-3.8836 1.082,-0.7986 2.55689,-1.4749 4.42466,-2.0288 1.86775,-0.5538 3.87076,-0.8308 6.00904,-0.8308 3.22025,0 6.04765,0.4637 8.48221,1.3911 2.4345,0.9275 4.23141,2.1834 5.39074,3.7678 1.15927,1.5844 1.9579,3.7033 2.39589,6.3568 l -6.80123,0.9274 c -0.30917,-2.1124 -1.20441,-3.7612 -2.68571,-4.9463 -1.48135,-1.185 -3.57453,-1.7776 -6.27954,-1.7776 -3.19453,0 -5.47448,0.5281 -6.83987,1.5844 -1.36541,1.0562 -2.04811,2.2928 -2.0481,3.7097 -10e-6,0.9017 0.28338,1.7132 0.85016,2.4346 0.56675,0.7471 1.45555,1.3654 2.66639,1.8548 0.69556,0.2577 2.74366,0.8502 6.14429,1.7776 4.92056,1.3139 8.35337,2.3895 10.29845,3.2267 1.94501,0.8373 3.47142,2.0546 4.57923,3.6518 1.10774,1.5973 1.66163,3.581 1.66166,5.9511 -3e-5,2.3186 -0.67629,4.502 -2.02877,6.5501 -1.35255,2.0481 -3.30404,3.6324 -5.85447,4.7531 -2.55048,1.1206 -5.43585,1.681 -8.6561,1.681 -5.3328,0 -9.39678,-1.1078 -12.19197,-3.3234 -2.79521,-2.2155 -4.57924,-5.5002 -5.35211,-9.854 z"
         style=""
         id="path3737" />
      <path
         d="m -411.48817,1318.9927 1.00473,6.1442 c -1.95795,0.4122 -3.70978,0.6183 -5.25549,0.6183 -2.52471,0 -4.48264,-0.3993 -5.87379,-1.1979 -1.39117,-0.7986 -2.37013,-1.8484 -2.93689,-3.1494 -0.56678,-1.301 -0.85016,-4.0383 -0.85016,-8.2117 l 0,-23.6111 -5.10092,0 0,-5.4101 5.10092,0 0,-10.1632 6.91716,-4.1735 0,14.3367 6.99444,0 0,5.4101 -6.99444,0 0,23.9975 c -10e-6,1.9837 0.12236,3.2589 0.36711,3.8257 0.24473,0.5668 0.64404,1.0176 1.19795,1.3525 0.55387,0.3349 1.34606,0.5024 2.37656,0.5024 0.77285,0 1.79046,-0.09 3.05282,-0.2705 z"
         style=""
         id="path3739" />
      <path
         d="m -376.63189,1311.9982 7.18766,0.8888 c -1.13358,4.1993 -3.2332,7.4582 -6.29886,9.7768 -3.06574,2.3186 -6.98159,3.4779 -11.74758,3.4779 -6.00261,0 -10.76218,-1.8485 -14.27871,-5.5453 -3.51655,-3.6969 -5.27482,-8.8816 -5.27481,-15.554 -10e-6,-6.9042 1.77758,-12.2628 5.33278,-16.0756 3.55517,-3.8128 8.1666,-5.7192 13.83431,-5.7192 5.48733,0 9.96995,1.8678 13.44788,5.6033 3.47786,3.7355 5.21681,8.991 5.21685,15.7664 -4e-5,0.4123 -0.0129,1.0305 -0.0386,1.8549 l -30.60552,0 c 0.25761,4.5084 1.53284,7.9606 3.82569,10.3564 2.29282,2.3959 5.15242,3.5939 8.57882,3.5939 2.55043,0 4.72734,-0.6699 6.53072,-2.0095 1.80332,-1.3396 3.23313,-3.4779 4.28941,-6.4148 z m -22.83821,-11.2452 22.9155,0 c -0.30918,-3.4521 -1.1851,-6.0412 -2.62775,-7.7673 -2.21558,-2.6792 -5.08806,-4.0189 -8.61746,-4.0189 -3.19454,0 -5.88025,1.0692 -8.05714,3.2074 -2.17692,2.1383 -3.3813,4.9979 -3.61315,8.5788 z"
         style=""
         id="path3741" />
      <path
         d="m -360.74947,1325.2142 0,-41.0392 6.26022,0 0,6.2216 c 1.59724,-2.9111 3.07213,-4.8304 4.42466,-5.7579 1.3525,-0.9274 2.84026,-1.3911 4.4633,-1.3911 2.34434,0 4.72735,0.7471 7.14902,2.2413 l -2.39589,6.4534 c -1.70033,-1.0047 -3.40063,-1.507 -5.10092,-1.5071 -1.51999,1e-4 -2.88538,0.4573 -4.09619,1.3719 -1.21084,0.9146 -2.07387,2.1834 -2.5891,3.8063 -0.77288,2.4732 -1.15932,5.1783 -1.1593,8.1151 l 0,21.4857 z"
         style=""
         id="path3743" />
      <path
         d="m -332.26934,1325.2142 0,-7.9219 7.92188,0 0,7.9219 z"
         style=""
         id="path3745" />
      <path
         d="m -305.87592,1325.2142 -6.45344,0 0,-56.6511 6.9558,0 0,20.2105 c 2.93688,-3.684 6.68528,-5.526 11.24521,-5.526 2.52467,0 4.91411,0.5088 7.16834,1.5264 2.25416,1.0176 4.10904,2.4474 5.56464,4.2894 1.45553,1.842 2.5955,4.064 3.41993,6.666 0.82435,2.602 1.23655,5.3843 1.23659,8.3469 -4e-5,7.0331 -1.73899,12.469 -5.21685,16.3075 -3.47793,3.8386 -7.65141,5.7579 -12.52044,5.7579 -4.84332,0 -8.64324,-2.0224 -11.39978,-6.067 z m -0.0773,-20.8287 c -10e-6,4.9206 0.6698,8.4758 2.00945,10.6655 2.18978,3.581 5.15243,5.3715 8.88797,5.3715 3.03992,0 5.66766,-1.3203 7.88324,-3.961 2.21552,-2.6406 3.32329,-6.5758 3.32333,-11.8055 -4e-5,-5.3585 -1.06273,-9.313 -3.18808,-11.8635 -2.12541,-2.5504 -4.69519,-3.8257 -7.70934,-3.8257 -3.03997,0 -5.66771,1.3203 -7.88324,3.9609 -2.21557,2.6407 -3.32334,6.4599 -3.32333,11.4578 z"
         style=""
         id="path3747" />
      <path
         d="m -268.54646,1341.0194 -0.77287,-6.5308 c 1.51997,0.4122 2.84672,0.6183 3.98027,0.6183 1.54572,0 2.78231,-0.2576 3.70976,-0.7728 0.92742,-0.5153 1.68741,-1.2366 2.27995,-2.1641 0.43795,-0.6956 1.14641,-2.4216 2.12539,-5.1782 0.12879,-0.3864 0.33489,-0.9532 0.61829,-1.7003 l -15.57326,-41.1165 7.4968,0 8.54018,23.7657 c 1.10776,3.0142 2.0996,6.1829 2.97554,9.5062 0.79861,-3.1945 1.75181,-6.3117 2.8596,-9.3517 l 8.77204,-23.9202 6.9558,0 -15.61191,41.7348 c -1.67456,4.5084 -2.97555,7.6127 -3.90297,9.3131 -1.23661,2.2928 -2.65353,3.9738 -4.25077,5.0429 -1.59727,1.0691 -3.50367,1.6037 -5.71921,1.6037 -1.33965,0 -2.83385,-0.2834 -4.48263,-0.8501 z"
         style=""
         id="path3749" />
    </g>
    <path
       sodipodi:type="spiral"
       style="fill:none;stroke:#00ffff;stroke-width:15;stroke-linecap:butt;stroke-linejoin:miter;stroke-miterlimit:4;stroke-opacity:1;stroke-dasharray:none"
       id="path5519"
       sodipodi:cx="-871.42859"
       sodipodi:cy="523.79077"
       sodipodi:expansion="1"
       sodipodi:revolution="1.6"
       sodipodi:radius="173.25221"
       sodipodi:argument="-18.616577"
       sodipodi:t0="0"
       d="m -871.42859,523.79077 c 15.84732,3.76037 2.7496,23.21711 -6.24999,26.33929 -24.38833,8.46092 -44.77516,-16.89083 -46.42859,-38.83926 -2.95759,-39.2606 34.8683,-67.39091 71.42854,-66.5179 53.65363,1.28118 90.44778,53.00684 86.6072,104.01782 -5.1189,67.98962 -71.19169,113.67886 -136.6071,106.6965 -82.31861,-8.7866 -136.99727,-89.39598 -126.78577,-169.19638 4.5018,-35.18077 20.7152,-68.32554 45.16992,-93.94452"
       transform="matrix(2.1002196,0,0,2.1002196,2156.6144,-346.92831)" />
    <g
       transform="matrix(1.9717468,2.6253265,-2.6253265,1.9717468,830.89947,-1069.0028)"
       id="g4131"
       inkscape:transform-center-y="-32.610044"
       inkscape:transform-center-x="-0.000150278">
      <rect
         style="fill:#ffffff;fill-opacity:1;stroke:none"
         id="rect4133"
         width="29.433319"
         height="30.140427"
         x="229.98648"
         y="423.39069" />
      <rect
         style="fill:#ffffff;fill-opacity:1;stroke:none"
         id="rect4135"
         width="29.610096"
         height="16.440233"
         x="231.04713"
         y="453.7963" />
      <g
         id="g4137"
         transform="matrix(-0.00678785,0.99997696,-0.99997696,-0.00678785,721.12312,76.145503)">
        <path
           sodipodi:nodetypes="cccccccccccccc"
           inkscape:connector-curvature="0"
           id="path4139"
           d="m 350.59597,489.58943 30.34337,-0.33839 1.02275,-1.48613 14.09229,0 -4.96469,7.31954 -47.34099,0.25758 -0.34597,-8.88886 -2.66161,-0.23614 -0.21339,-16.12132 2.76516,-0.60355 0.25759,-5.26386 6.17179,-4.52275 0.0808,28.64146 z"
           style="fill:#a1a1a1;fill-opacity:1;stroke:none" />
        <g
           id="g4141">
          <g
             id="g4143"
             transform="matrix(0.69501189,-0.00363916,0.00390114,0.74506544,339.16143,456.59516)">
            <g
               id="g4145"
               transform="translate(12.2412,43.8242)">
              <path
                 d="m 0,0 -4.243,4.243 c -0.195,0.196 -0.195,0.512 0,0.707 0.098,0.098 0.226,0.147 0.354,0.147 0.128,0 0.256,-0.049 0.353,-0.147 L 0.707,0.707 C 0.902,0.512 0.902,0.195 0.707,0 0.512,-0.195 0.195,-0.195 0,0"
                 style="fill:#100f0d;fill-opacity:1;fill-rule:nonzero;stroke:none"
                 id="path4147"
                 inkscape:connector-curvature="0" />
            </g>
          </g>
          <g
             id="g4149"
             transform="matrix(0.69501189,-0.00363916,0.00390114,0.74506544,339.16143,456.59516)">
            <g
               id="g4151"
               transform="translate(82,40)">
              <path
                 d="M 0,0 -20.582,0 C -20.725,0 -20.865,0.021 -21,0.06 l 0,-35.471 c 0.07,-0.066 0.139,-0.134 0.196,-0.213 L -19.813,-37 0,-37 0,0 z M -8.553,11 -75,11 -75,0.5 c 0,-0.828 -0.671,-1.5 -1.5,-1.5 l -2.5,0 0,-20 2.5,0 c 0.829,0 1.5,-0.672 1.5,-1.5 l 0,-6.381 7.319,-5.652 10e-4,37.821 c 0,0.828 0.671,1.5 1.5,1.5 l 44.499,0 c 0.829,0 1.5,-0.672 1.5,-1.5 0,-0.035 -0.007,-0.067 -0.01,-0.101 L -19.991,3 -1.844,3 -8.553,11 z M -24,-35 l 0,36.788 -40.68,0 L -64.681,-35 -24,-35 z m 25.5,-5 -22.082,0 c -0.482,0 -0.936,0.232 -1.217,0.624 l -0.991,1.376 -42.691,0 -1.399,0 -0.708,0 c -0.332,0 -0.655,0.11 -0.917,0.312 l -8.912,6.883 c -0.368,0.285 -0.583,0.723 -0.583,1.188 l 0,5.617 -2.5,0 c -0.829,0 -1.5,0.672 -1.5,1.5 l 0,23 c 0,0.828 0.671,1.5 1.5,1.5 l 2.5,0 0,10.5 c 0,0.828 0.671,1.5 1.5,1.5 l 68.646,0 c 0.444,0 0.865,-0.196 1.15,-0.536 L 2.649,2.312 C 2.876,2.041 3,1.7 3,1.348 L 3,-38.5 C 3,-39.328 2.329,-40 1.5,-40"
                 style="fill:#100f0d;fill-opacity:1;fill-rule:nonzero;stroke:none"
                 id="path4153"
                 inkscape:connector-curvature="0" />
            </g>
          </g>
          <g
             id="g4155"
             transform="matrix(0.69501189,-0.00363916,0.00390114,0.74506544,339.16143,456.59516)">
            <g
               id="g4157"
               transform="translate(25.8237,12.2207)">
              <path
                 d="m 0,0 2.492,0 0,22.666 -2.493,0 L 0,0 z m -1.501,25.666 5.493,0 c 0.828,0 1.5,-0.672 1.5,-1.5 l 0,-25.666 C 5.492,-1.897 5.334,-2.279 5.053,-2.561 4.771,-2.842 4.39,-3 3.992,-3 L -1.5,-3 C -2.329,-3 -3,-2.328 -3,-1.5 l -10e-4,25.666 c 0,0.398 0.159,0.779 0.44,1.061 0.281,0.281 0.663,0.439 1.06,0.439"
                 style="fill:#100f0d;fill-opacity:1;fill-rule:nonzero;stroke:none"
                 id="path4159"
                 inkscape:connector-curvature="0" />
            </g>
          </g>
          <g
             id="g4161"
             transform="matrix(0.69501189,-0.00363916,0.00390114,0.74506544,339.16143,456.59516)">
            <g
               id="g4163"
               transform="translate(37.9507,12.2207)">
              <path
                 d="m 0,0 12.492,-0.001 0,22.668 L 0,22.666 0,0 z m -1.5,25.666 15.492,0.001 c 0.398,0 0.779,-0.158 1.061,-0.439 0.281,-0.282 0.439,-0.663 0.439,-1.061 l 0,-25.668 c 0,-0.397 -0.158,-0.779 -0.439,-1.06 -0.282,-0.282 -0.663,-0.44 -1.061,-0.44 L -1.5,-3 C -2.329,-3 -3,-2.328 -3,-1.5 l 0,25.666 c 0,0.828 0.671,1.5 1.5,1.5"
                 style="fill:#100f0d;fill-opacity:1;fill-rule:nonzero;stroke:none"
                 id="path4165"
                 inkscape:connector-curvature="0" />
            </g>
          </g>
          <g
             id="g4167"
             transform="matrix(0.69501189,-0.00363916,0.00390114,0.74506544,339.16143,456.59516)">
            <g
               id="g4169"
               transform="translate(75.2236,10.1943)">
              <path
                 d="m 0,0 0,22.667 -5.492,0 L -5.492,0 0,0 z m -6.992,25.667 8.492,0 c 0.007,-0.001 0.014,-0.001 0.021,0 0.828,0 1.5,-0.672 1.5,-1.5 C 3.021,24.083 3.014,24.001 3,23.922 L 3,-1.5 C 3,-2.328 2.329,-3 1.5,-3 l -8.492,0 c -0.398,0 -0.779,0.158 -1.061,0.44 -0.281,0.281 -0.439,0.663 -0.439,1.06 l 0,25.667 c 0,0.828 0.672,1.5 1.5,1.5"
                 style="fill:#100f0d;fill-opacity:1;fill-rule:nonzero;stroke:none"
                 id="path4171"
                 inkscape:connector-curvature="0" />
            </g>
          </g>
        </g>
      </g>
    </g>
    <g
       style="font-size:203.82748413px;font-style:normal;font-weight:normal;line-height:125%;letter-spacing:0px;word-spacing:0px;fill:#00ffff;fill-opacity:1;stroke:none;font-family:Sans"
       id="text5521">
      <path
         d="m -28.048664,1299.123 0,-105.6957 16.023547,0 0,14.8293 c 3.3174718,-5.1752 7.7297485,-9.3387 13.2368434,-12.4904 5.5070095,-3.1515 11.7770866,-4.7273 18.8102516,-4.7275 7.829241,2e-4 14.248606,1.6257 19.258114,4.8768 5.009346,3.2512 8.542485,7.7962 10.599427,13.6349 8.360012,-12.341 19.241416,-18.5115 32.644246,-18.5117 10.48318,2e-4 18.544705,2.903 24.184605,8.7085 5.63961,5.8057 8.45948,14.7464 8.45964,26.822 l 0,72.5538 -17.815,0 0,-66.5823 c -1.38e-4,-7.1657 -0.580701,-12.3244 -1.741689,-15.4761 -1.161263,-3.1516 -3.267876,-5.6895 -6.319847,-7.6137 -3.052232,-1.9241 -6.635133,-2.8861 -10.748715,-2.8862 -7.431323,1e-4 -13.601875,2.4716 -18.511676,7.4146 -4.910003,4.9432 -7.364954,12.8554 -7.36486,23.7367 l 0,61.407 -17.914525,0 0,-68.6723 c -7.6e-5,-7.9619 -1.459777,-13.9334 -4.379106,-17.9145 -2.919473,-3.9809 -7.696675,-5.9714 -14.33162,-5.9715 -5.042659,1e-4 -9.7037488,1.3271 -13.9832819,3.981 -4.2796202,2.6541 -7.381484,6.5355 -9.3056005,11.6444 -1.924185,5.109 -2.8862606,12.4739 -2.8862286,22.0946 l 0,54.8383 z"
         style=""
         id="path3714" />
      <path
         d="m 142.0398,1173.8209 0,-20.6017 17.91452,0 0,20.6017 z m 0,125.3021 0,-105.6957 17.91452,0 0,105.6957 z"
         style=""
         id="path3716" />
      <path
         d="m 180.15793,1267.5736 17.71548,-2.7867 c 0.99522,7.0995 3.76534,12.5402 8.31035,16.3221 4.54494,3.782 10.89795,5.6729 19.05906,5.6729 8.22735,0 14.33155,-1.6753 18.31263,-5.026 3.98093,-3.3506 5.97143,-7.2819 5.9715,-11.7937 -7e-5,-4.0473 -1.75835,-7.2321 -5.27483,-9.5544 -2.45502,-1.5924 -8.55922,-3.6161 -18.31262,-6.0711 -13.13736,-3.3174 -22.2439,-6.1871 -27.31966,-8.6089 -5.0758,-2.4217 -8.9241,-5.7724 -11.54491,-10.052 -2.62084,-4.2795 -3.93125,-9.007 -3.93124,-14.1824 -1e-5,-4.7107 1.07817,-9.0732 3.23456,-13.0875 2.15637,-4.0141 5.09235,-7.3482 8.80798,-10.0023 2.78668,-2.0567 6.58522,-3.7984 11.39563,-5.2251 4.81034,-1.4264 9.96905,-2.1396 15.47616,-2.1398 8.2937,2e-4 15.57562,1.1945 21.84576,3.583 6.27001,2.3887 10.89792,5.6232 13.88376,9.7037 2.98567,4.0806 5.04252,9.5379 6.17056,16.3718 l -17.51643,2.3886 c -0.79627,-5.4406 -3.10193,-9.687 -6.91699,-12.7392 -3.8152,-3.052 -9.20613,-4.578 -16.17284,-4.5781 -8.22745,1e-4 -14.09943,1.3602 -17.61595,4.0805 -3.51658,2.7204 -5.27486,5.9052 -5.27483,9.5544 -3e-5,2.3223 0.72982,4.4124 2.18955,6.2701 1.45967,1.9242 3.74875,3.5166 6.86724,4.7772 1.79141,0.6636 7.06624,2.1896 15.82449,4.5782 12.67281,3.3839 21.51395,6.154 26.52345,8.3103 5.00935,2.1564 8.94059,5.2915 11.79373,9.4051 2.85296,4.1138 4.27949,9.2227 4.27958,15.3269 -9e-5,5.9715 -1.74178,11.5947 -5.22507,16.8695 -3.48346,5.2749 -8.50948,9.3554 -15.07805,12.2416 -6.56873,2.8862 -13.99993,4.3293 -22.29364,4.3294 -13.7345,-10e-5 -24.20122,-2.8531 -31.40018,-8.5592 -7.19899,-5.7061 -11.79373,-14.1657 -13.78423,-25.3789 z"
         style=""
         id="path3718" />
      <path
         d="m 328.35085,1283.0995 2.58765,15.8245 c -5.04266,1.0616 -9.55446,1.5924 -13.53542,1.5924 -6.50234,0 -11.54494,-1.0284 -15.12782,-3.0853 -3.58293,-2.0568 -6.10423,-4.7606 -7.56391,-8.1113 -1.45972,-3.3506 -2.18957,-10.4003 -2.18955,-21.1491 l 0,-60.8098 -13.13732,0 0,-13.9336 13.13732,0 0,-26.1751 17.815,-10.7487 0,36.9238 18.01405,0 0,13.9336 -18.01405,0 0,61.8051 c -4e-5,5.109 0.31513,8.3933 0.94549,9.853 0.63029,1.4597 1.65871,2.6208 3.08528,3.4833 1.42648,0.8626 3.46675,1.2939 6.12079,1.2939 1.99046,0 4.61128,-0.2322 7.86249,-0.6967 z"
         style=""
         id="path3720" />
      <path
         d="m 418.12252,1265.0854 18.51167,2.2891 c -2.9195,10.8151 -8.32703,19.2084 -16.22259,25.1799 -7.89575,5.9715 -17.98095,8.9572 -30.25565,8.9573 -15.45961,-10e-5 -27.71778,-4.7607 -36.77454,-14.2819 -9.05679,-9.5212 -13.58518,-22.8742 -13.58518,-40.0589 0,-17.7817 4.57815,-31.5825 13.73447,-41.4024 9.15629,-9.8197 21.03294,-14.7296 35.63,-14.7298 14.1325,2e-4 25.67741,4.8105 34.63475,14.4312 8.95716,9.6208 13.43579,23.1562 13.43589,40.6062 -10e-5,1.0617 -0.0333,2.6541 -0.0995,4.7773 l -78.82391,0 c 0.66347,11.6113 3.9478,20.5022 9.85299,26.6727 5.90511,6.1706 13.26997,9.2558 22.09458,9.2558 6.56859,0 12.17517,-1.7251 16.81975,-5.1753 4.64442,-3.4502 8.32685,-8.9572 11.04729,-16.5212 z m -58.81936,-28.9618 59.01841,0 c -0.79629,-8.8908 -3.05219,-15.559 -6.76771,-20.0045 -5.70618,-6.9003 -13.10421,-10.3505 -22.19411,-10.3506 -8.22746,1e-4 -15.14445,2.7536 -20.75099,8.2606 -5.60661,5.5071 -8.70848,12.8719 -9.3056,22.0945 z"
         style=""
         id="path3722" />
      <path
         d="m 459.02737,1299.123 0,-105.6957 16.12307,0 0,16.0236 c 4.11368,-7.4975 7.91221,-12.4405 11.39563,-14.8292 3.48334,-2.3885 7.31505,-3.5828 11.49516,-3.583 6.0378,2e-4 12.17517,1.9243 18.41215,5.7725 l -6.17056,16.6207 c -4.37917,-2.5876 -8.75827,-3.8814 -13.13732,-3.8815 -3.9147,10e-5 -7.43126,1.1778 -10.54967,3.5332 -3.11849,2.3555 -5.34121,5.6232 -6.66818,9.8032 -1.99053,6.3697 -2.98579,13.3364 -2.98575,20.9003 l 0,55.3359 z"
         style=""
         id="path3724" />
    </g>
    <g
       style="font-size:298.56500244px;font-style:normal;font-weight:normal;line-height:125%;letter-spacing:0px;word-spacing:0px;fill:#00ffff;fill-opacity:1;stroke:none;font-family:Sans"
       id="text5525">
      <path
         d="m 75.45715,1479.6064 25.80371,3.3531 c -2.818624,17.7856 -10.03491,31.7079 -21.648874,41.767 -11.614215,10.0591 -25.876705,15.0886 -42.787514,15.0886 -21.187291,0 -38.2196688,-6.9247 -51.097184,-20.7742 -12.877578,-13.8494 -19.316351,-33.7003 -19.31634,-59.5526 -1.1e-5,-16.7165 2.769876,-31.3434 8.309671,-43.8809 5.539755,-12.5373 13.970903,-21.9403 25.29347042,-28.2092 11.32247658,-6.2685 23.64118658,-9.4028 36.95616558,-9.403 16.813621,2e-4 30.565869,4.2522 41.256785,12.7561 10.69067,8.5042 17.542497,20.5799 20.555501,36.2272 l -25.512146,3.9362 c -2.429844,-10.3991 -6.730459,-18.2229 -12.901857,-23.4712 -6.171609,-5.2481 -13.630867,-7.8722 -22.377797,-7.8723 -13.217791,10e-5 -23.957179,4.7381 -32.2181957,14.2139 -8.2611187,9.476 -12.3916525,24.4675 -12.3916139,44.9743 -3.86e-5,20.7985 3.9847117,35.9114 11.9542628,45.3387 7.9694498,9.4274 18.3686768,14.141 31.1977098,14.141 10.301956,0 18.903185,-3.1586 25.803714,-9.4759 6.900314,-6.3173 11.27382,-16.0362 13.120532,-29.1568 z"
         style=""
         id="path3703" />
      <path
         d="m 224.73965,1517.2186 c -9.71902,8.2611 -19.07347,14.0924 -28.06336,17.4941 -8.99008,3.4016 -18.63609,5.1024 -28.93806,5.1024 -17.00815,0 -30.08007,-4.1548 -39.21582,-12.4645 -9.13579,-8.3097 -13.70367,-18.9276 -13.70366,-31.8537 -10e-6,-7.5808 1.72509,-14.5055 5.17532,-20.7742 3.45019,-6.2687 7.96948,-11.2982 13.55788,-15.0886 5.58834,-3.7903 11.88133,-6.6574 18.87899,-8.6013 5.15097,-1.3605 12.92609,-2.6726 23.32539,-3.9361 21.18714,-2.5269 36.78598,-5.5397 46.79657,-9.0386 0.0971,-3.5959 0.14566,-5.8799 0.14578,-6.8519 -1.2e-4,-10.6906 -2.47844,-18.2228 -7.43497,-22.5964 -6.70615,-5.9284 -16.66803,-8.8927 -29.88566,-8.8928 -12.34308,10e-5 -21.45456,2.1626 -27.33444,6.4873 -5.87999,4.3251 -10.2292,11.9787 -13.04764,22.961 l -25.65793,-3.4988 c 2.33252,-10.9823 6.17149,-19.8508 11.51691,-26.6056 5.34537,-6.7545 13.0719,-11.9541 23.17961,-15.5988 10.10761,-3.6445 21.81889,-5.4667 35.13387,-5.4669 13.21762,2e-4 23.95701,1.5552 32.2182,4.6651 8.26095,3.1102 14.33526,7.022 18.22296,11.7356 3.88742,4.7138 6.60872,10.6666 8.16388,17.8585 0.87456,4.4708 1.31191,12.5375 1.31206,24.2001 l 0,34.988 c -1.5e-4,24.3946 0.55869,39.8233 1.67651,46.2864 1.11753,6.4631 3.32858,12.6589 6.63316,18.5874 l -27.40734,0 c -2.72141,-5.4426 -4.47082,-11.8085 -5.24821,-19.0977 z m -2.18675,-58.605 c -9.52465,3.8876 -23.81143,7.192 -42.86041,9.9133 -10.78806,1.5551 -18.4174,3.3045 -22.88804,5.2482 -4.47075,1.9438 -7.92096,4.7866 -10.35064,8.5283 -2.42977,3.7419 -3.64463,7.8967 -3.64459,12.4645 -4e-5,6.9977 2.64836,12.829 7.94521,17.4941 5.29675,4.6651 13.04758,6.9976 23.2525,6.9976 10.10759,0 19.09757,-2.211 26.96998,-6.6332 7.87221,-4.422 13.65496,-10.4721 17.34826,-18.15 2.81837,-5.9285 4.22761,-14.6755 4.22773,-26.2411 z"
         style=""
         id="path3705" />
      <path
         d="m 314.10504,1536.3163 -24.34588,0 0,-213.7189 26.24106,0 0,76.2449 c 11.07951,-13.8979 25.22051,-20.8469 42.42306,-20.8471 9.52443,2e-4 18.53872,1.9196 27.04287,5.7584 8.50393,3.8392 15.50154,9.2332 20.99285,16.182 5.49105,6.9492 9.79166,15.3317 12.90186,25.1477 3.1099,9.8162 4.66493,20.3126 4.66508,31.4893 -1.5e-4,26.5327 -6.56041,47.0396 -19.6808,61.5207 -13.12065,14.4812 -28.86528,21.7218 -47.23392,21.7218 -18.27162,0 -32.607,-7.6293 -43.00618,-22.888 z m -0.29157,-78.5774 c -5e-5,18.5632 2.52687,31.9752 7.58075,40.2363 8.26102,13.5093 19.43776,20.2639 33.53025,20.2639 11.46822,0 21.3815,-4.9809 29.73987,-14.9428 8.35814,-9.9619 12.53727,-24.8075 12.5374,-44.5369 -1.3e-4,-20.2153 -4.00917,-35.1338 -12.02715,-44.7556 -8.01821,-9.6216 -17.71282,-14.4325 -29.08385,-14.4326 -11.46839,10e-5 -21.38167,4.9811 -29.73987,14.9428 -8.35832,9.962 -12.53745,24.3703 -12.5374,43.2249 z"
         style=""
         id="path3707" />
      <path
         d="m 455.51523,1536.3163 0,-213.7189 26.24106,0 0,213.7189 z"
         style=""
         id="path3709" />
      <path
         d="m 628.56046,1486.4583 27.11577,3.353 c -4.27647,15.8418 -12.19738,28.1363 -23.76274,36.8833 -11.56563,8.747 -26.33836,13.1205 -44.31824,13.1205 -22.64513,0 -40.60081,-6.9733 -53.86708,-20.92 -13.26633,-13.9466 -19.89948,-33.5059 -19.89947,-58.6779 -10e-6,-26.0466 6.70603,-46.2619 20.11815,-60.646 13.41205,-14.3839 30.80889,-21.5758 52.19056,-21.576 20.70118,2e-4 37.61207,7.0464 50.73272,21.1386 13.12039,14.0926 19.68065,33.9191 19.6808,59.4798 -1.5e-4,1.5551 -0.0488,3.8876 -0.14578,6.9976 l -115.46069,0 c 0.97186,17.0081 5.78271,30.0315 14.43259,39.07 8.64977,9.0386 19.43775,13.5579 32.36398,13.5579 9.62163,0 17.8341,-2.5269 24.63744,-7.5807 6.80313,-5.0538 12.19712,-13.1205 16.18199,-24.2001 z m -86.15816,-42.4231 86.44973,0 c -1.16639,-13.0232 -4.47082,-22.7907 -9.91329,-29.3025 -8.35837,-10.1076 -19.19495,-15.1614 -32.50976,-15.1615 -12.05153,10e-5 -22.18348,4.0335 -30.3959,12.1 -8.21253,8.0668 -12.75612,18.8548 -13.63078,32.364 z"
         style=""
         id="path3711" />
    </g>
    <g
       style="font-size:89.52915955px;font-style:normal;font-weight:normal;line-height:125%;letter-spacing:0px;word-spacing:0px;fill:#ffffff;fill-opacity:1;stroke:none;font-family:Sans"
       id="text3109">
      <path
         d="m 830.68836,724.25606 7.73763,1.00545 c -0.84521,5.33329 -3.00912,9.50811 -6.49174,12.52447 -3.48269,3.01636 -7.75951,4.52454 -12.83047,4.52454 -6.35332,0 -11.46074,-2.07648 -15.32225,-6.22944 -3.86153,-4.15296 -5.7923,-10.10553 -5.79229,-17.85775 -10e-6,-5.01267 0.83059,-9.39878 2.49178,-13.15834 1.66117,-3.75948 4.18938,-6.57912 7.58462,-8.45893 3.39521,-1.87971 7.08916,-2.8196 11.08186,-2.81964 5.04181,4e-5 9.16563,1.27508 12.37146,3.8251 3.20575,2.5501 5.26038,6.17119 6.16387,10.86328 l -7.6502,1.18031 c -0.72862,-3.11833 -2.01823,-5.46439 -3.86881,-7.03818 -1.85065,-1.57371 -4.08742,-2.36059 -6.71032,-2.36063 -3.96355,4e-5 -7.18391,1.42079 -9.6611,4.26225 -2.47722,2.84154 -3.71582,7.33693 -3.71581,13.4862 -10e-6,6.23675 1.19487,10.76858 3.58466,13.5955 2.38976,2.82693 5.50812,4.2404 9.3551,4.24039 3.08919,10e-6 5.6684,-0.94716 7.73763,-2.8415 2.06916,-1.89432 3.38062,-4.80868 3.93438,-8.74308 z"
         style=""
         id="path3692" />
      <path
         d="m 875.45294,735.53463 c -2.91439,2.47721 -5.71946,4.22583 -8.41521,5.24585 -2.69581,1.02003 -5.58831,1.53004 -8.67751,1.53004 -5.10015,0 -9.01996,-1.24589 -11.75945,-3.73767 -2.7395,-2.49177 -4.10925,-5.6757 -4.10925,-9.55181 0,-2.27319 0.5173,-4.34967 1.5519,-6.22945 1.03459,-1.87974 2.38977,-3.38792 4.06553,-4.52454 1.67575,-1.13658 3.5628,-1.99632 5.66115,-2.57921 1.5446,-0.40799 3.87608,-0.80143 6.99447,-1.18032 6.35327,-0.7577 11.03082,-1.66116 14.03264,-2.71035 0.0291,-1.07829 0.0437,-1.76316 0.0437,-2.05463 -4e-5,-3.20576 -0.7432,-5.46439 -2.22949,-6.77589 -2.01094,-1.77772 -4.99815,-2.6666 -8.96166,-2.66664 -3.70126,4e-5 -6.43347,0.64849 -8.19664,1.94534 -1.7632,1.29693 -3.06737,3.59198 -3.91253,6.88518 l -7.69391,-1.04917 c 0.69944,-3.29319 1.85061,-5.95255 3.45352,-7.97807 1.60289,-2.02543 3.9198,-3.58461 6.95075,-4.67754 3.03092,-1.09284 6.54272,-1.63929 10.53541,-1.63933 3.9635,4e-5 7.18387,0.46634 9.66111,1.39889 2.47717,0.93264 4.29864,2.10567 5.46443,3.51909 1.1657,1.41351 1.98172,3.19855 2.44806,5.35514 0.26225,1.34064 0.39339,3.75956 0.39344,7.25676 l 0,10.4917 c -5e-5,7.31505 0.16753,11.9416 0.50272,13.87964 0.33511,1.93805 0.99813,3.79595 1.98906,5.57371 l -8.2185,0 c -0.81606,-1.63204 -1.34064,-3.54094 -1.57376,-5.72672 z m -0.65573,-17.57359 c -2.8561,1.16577 -7.14021,2.15665 -12.85233,2.97265 -3.23496,0.46631 -5.52273,0.9909 -6.86332,1.57375 -1.34062,0.58289 -2.37521,1.43534 -3.10379,2.55735 -0.7286,1.12205 -1.0929,2.36794 -1.09289,3.73767 -10e-6,2.09835 0.79415,3.84697 2.38249,5.24585 1.58831,1.3989 3.91251,2.09834 6.97261,2.09834 3.03091,0 5.72669,-0.66301 8.08735,-1.98905 2.3606,-1.32603 4.09465,-3.14021 5.20214,-5.44257 0.84513,-1.77775 1.26771,-4.40067 1.26774,-7.86877 z"
         style=""
         id="path3694" />
      <path
         d="m 902.25049,741.26135 -7.30048,0 0,-64.08679 7.86878,0 0,22.86316 c 3.32235,-4.16749 7.56274,-6.25126 12.72118,-6.2513 2.85604,4e-5 5.55911,0.57563 8.10921,1.72676 2.55003,1.15121 4.64837,2.76868 6.29502,4.85241 1.64657,2.0838 2.93617,4.59744 3.86881,7.5409 0.93255,2.94354 1.39885,6.09105 1.3989,9.44253 -5e-5,7.95622 -1.96724,14.10552 -5.90159,18.44791 -3.93442,4.34239 -8.65568,6.51359 -14.16379,6.51359 -5.47902,0 -9.77769,-2.28777 -12.89604,-6.86332 z m -0.0874,-23.5626 c -2e-5,5.56644 0.75772,9.58826 2.2732,12.06545 2.47719,4.05097 5.8287,6.07645 10.05454,6.07644 3.43892,10e-6 6.41156,-1.4936 8.91794,-4.48083 2.50632,-2.9872 3.75949,-7.43889 3.75953,-13.35506 -4e-5,-6.06184 -1.20221,-10.53538 -3.60652,-13.42063 -2.40438,-2.88517 -5.31145,-4.32778 -8.72123,-4.32782 -3.43896,4e-5 -6.41161,1.49365 -8.91794,4.48083 -2.50636,2.98725 -3.75954,7.30779 -3.75952,12.96162 z"
         style=""
         id="path3696" />
      <path
         d="m 944.65444,741.26135 0,-64.08679 7.86877,0 0,64.08679 z"
         style=""
         id="path3698" />
      <path
         d="m 996.54462,726.31068 8.13108,1.00546 c -1.2824,4.75041 -3.6576,8.43708 -7.12562,11.06 -3.46813,2.62292 -7.89795,3.93438 -13.28949,3.93438 -6.79048,0 -12.17475,-2.09105 -16.15284,-6.27316 -3.97811,-4.1821 -5.96716,-10.04724 -5.96716,-17.59545 0,-7.81046 2.01091,-13.87232 6.03273,-18.18561 4.02181,-4.31321 9.23851,-6.46984 15.65012,-6.46988 6.20755,4e-5 11.27854,2.11295 15.21296,6.33873 3.9343,4.22586 5.9015,10.17115 5.9016,17.83589 -10e-5,0.46632 -0.015,1.16577 -0.044,2.09834 l -34.62264,0 c 0.29142,5.10015 1.73403,9.00539 4.32783,11.71573 2.59376,2.71036 5.8287,4.06554 9.70482,4.06553 2.88519,10e-6 5.34782,-0.75773 7.3879,-2.2732 2.04002,-1.51546 3.65749,-3.93437 4.85241,-7.25676 z m -25.83581,-12.72118 25.92324,0 c -0.34976,-3.90521 -1.34064,-6.83414 -2.97265,-8.7868 -2.50638,-3.03089 -5.75589,-4.54636 -9.74853,-4.5464 -3.61383,4e-5 -6.65205,1.2095 -9.11466,3.62838 -2.46265,2.41895 -3.82512,5.65389 -4.0874,9.70482 z"
         style=""
         id="path3700" />
    </g>
  </g>
</svg>
