<?xml version="1.0" encoding="UTF-8" standalone="no"?>
<!-- Created with Inkscape (http://www.inkscape.org/) -->

<svg
   xmlns:dc="http://purl.org/dc/elements/1.1/"
   xmlns:cc="http://creativecommons.org/ns#"
   xmlns:rdf="http://www.w3.org/1999/02/22-rdf-syntax-ns#"
   xmlns:svg="http://www.w3.org/2000/svg"
   xmlns="http://www.w3.org/2000/svg"
   xmlns:sodipodi="http://sodipodi.sourceforge.net/DTD/sodipodi-0.dtd"
   xmlns:inkscape="http://www.inkscape.org/namespaces/inkscape"
   width="744.09448819"
   height="1052.3622047"
   id="svg5529"
   version="1.1"
   inkscape:version="0.48.2 r9819"
   sodipodi:docname="nalepka_9_en.svg"
   inkscape:export-filename="/home/svet/Dropbox/falanster/mesh/stickers/en_stickers/poster_9_en.png"
   inkscape:export-xdpi="90"
   inkscape:export-ydpi="90">
  <defs
     id="defs5531">
    <clipPath
       clipPathUnits="userSpaceOnUse"
       id="clipPath4444-88">
      <path
         inkscape:connector-curvature="0"
         d="M 0,0 612,0 612,792 0,792 0,0 z"
         id="path4446-75" />
    </clipPath>
    <clipPath
       clipPathUnits="userSpaceOnUse"
       id="clipPath4428-63">
      <path
         inkscape:connector-curvature="0"
         d="M 0,0 612,0 612,792 0,792 0,0 z"
         id="path4430-42" />
    </clipPath>
    <clipPath
       clipPathUnits="userSpaceOnUse"
       id="clipPath4444-35">
      <path
         inkscape:connector-curvature="0"
         d="M 0,0 612,0 612,792 0,792 0,0 z"
         id="path4446-53" />
    </clipPath>
    <clipPath
       clipPathUnits="userSpaceOnUse"
       id="clipPath4428-16">
      <path
         inkscape:connector-curvature="0"
         d="M 0,0 612,0 612,792 0,792 0,0 z"
         id="path4430-3" />
    </clipPath>
    <clipPath
       clipPathUnits="userSpaceOnUse"
       id="clipPath4444-5">
      <path
         inkscape:connector-curvature="0"
         d="M 0,0 612,0 612,792 0,792 0,0 z"
         id="path4446-54" />
    </clipPath>
    <clipPath
       clipPathUnits="userSpaceOnUse"
       id="clipPath4428-9">
      <path
         inkscape:connector-curvature="0"
         d="M 0,0 612,0 612,792 0,792 0,0 z"
         id="path4430-82" />
    </clipPath>
    <clipPath
       clipPathUnits="userSpaceOnUse"
       id="clipPath4444-1">
      <path
         inkscape:connector-curvature="0"
         d="M 0,0 612,0 612,792 0,792 0,0 z"
         id="path4446-97" />
    </clipPath>
    <clipPath
       clipPathUnits="userSpaceOnUse"
       id="clipPath4428-2">
      <path
         inkscape:connector-curvature="0"
         d="M 0,0 612,0 612,792 0,792 0,0 z"
         id="path4430-1" />
    </clipPath>
    <clipPath
       clipPathUnits="userSpaceOnUse"
       id="clipPath4444-98">
      <path
         inkscape:connector-curvature="0"
         d="M 0,0 612,0 612,792 0,792 0,0 z"
         id="path4446-9" />
    </clipPath>
    <clipPath
       clipPathUnits="userSpaceOnUse"
       id="clipPath4428-06">
      <path
         inkscape:connector-curvature="0"
         d="M 0,0 612,0 612,792 0,792 0,0 z"
         id="path4430-81" />
    </clipPath>
    <clipPath
       clipPathUnits="userSpaceOnUse"
       id="clipPath4444-0">
      <path
         inkscape:connector-curvature="0"
         d="M 0,0 612,0 612,792 0,792 0,0 z"
         id="path4446-7" />
    </clipPath>
    <clipPath
       clipPathUnits="userSpaceOnUse"
       id="clipPath4428-3">
      <path
         inkscape:connector-curvature="0"
         d="M 0,0 612,0 612,792 0,792 0,0 z"
         id="path4430-71" />
    </clipPath>
    <clipPath
       clipPathUnits="userSpaceOnUse"
       id="clipPath4444-83">
      <path
         inkscape:connector-curvature="0"
         d="M 0,0 612,0 612,792 0,792 0,0 z"
         id="path4446-5" />
    </clipPath>
    <clipPath
       clipPathUnits="userSpaceOnUse"
       id="clipPath4428-09">
      <path
         inkscape:connector-curvature="0"
         d="M 0,0 612,0 612,792 0,792 0,0 z"
         id="path4430-47" />
    </clipPath>
    <clipPath
       clipPathUnits="userSpaceOnUse"
       id="clipPath4444-6">
      <path
         inkscape:connector-curvature="0"
         d="M 0,0 612,0 612,792 0,792 0,0 z"
         id="path4446-0" />
    </clipPath>
    <clipPath
       clipPathUnits="userSpaceOnUse"
       id="clipPath4428-1">
      <path
         inkscape:connector-curvature="0"
         d="M 0,0 612,0 612,792 0,792 0,0 z"
         id="path4430-4" />
    </clipPath>
    <clipPath
       clipPathUnits="userSpaceOnUse"
       id="clipPath4444-36">
      <path
         inkscape:connector-curvature="0"
         d="M 0,0 612,0 612,792 0,792 0,0 z"
         id="path4446-1" />
    </clipPath>
    <clipPath
       clipPathUnits="userSpaceOnUse"
       id="clipPath4428-0">
      <path
         inkscape:connector-curvature="0"
         d="M 0,0 612,0 612,792 0,792 0,0 z"
         id="path4430-76" />
    </clipPath>
    <clipPath
       clipPathUnits="userSpaceOnUse"
       id="clipPath4444-3">
      <path
         inkscape:connector-curvature="0"
         d="M 0,0 612,0 612,792 0,792 0,0 z"
         id="path4446-4" />
    </clipPath>
    <clipPath
       clipPathUnits="userSpaceOnUse"
       id="clipPath4428-8">
      <path
         inkscape:connector-curvature="0"
         d="M 0,0 612,0 612,792 0,792 0,0 z"
         id="path4430-9" />
    </clipPath>
    <clipPath
       clipPathUnits="userSpaceOnUse"
       id="clipPath4444-9">
      <path
         inkscape:connector-curvature="0"
         d="M 0,0 612,0 612,792 0,792 0,0 z"
         id="path4446-3" />
    </clipPath>
    <clipPath
       clipPathUnits="userSpaceOnUse"
       id="clipPath4428-7">
      <path
         inkscape:connector-curvature="0"
         d="M 0,0 612,0 612,792 0,792 0,0 z"
         id="path4430-7" />
    </clipPath>
    <clipPath
       clipPathUnits="userSpaceOnUse"
       id="clipPath4444-7">
      <path
         inkscape:connector-curvature="0"
         d="M 0,0 612,0 612,792 0,792 0,0 z"
         id="path4446-6" />
    </clipPath>
    <clipPath
       clipPathUnits="userSpaceOnUse"
       id="clipPath4428-6">
      <path
         inkscape:connector-curvature="0"
         d="M 0,0 612,0 612,792 0,792 0,0 z"
         id="path4430-85" />
    </clipPath>
    <clipPath
       clipPathUnits="userSpaceOnUse"
       id="clipPath4444-8">
      <path
         inkscape:connector-curvature="0"
         d="M 0,0 612,0 612,792 0,792 0,0 z"
         id="path4446-2" />
    </clipPath>
    <clipPath
       clipPathUnits="userSpaceOnUse"
       id="clipPath4428-4">
      <path
         inkscape:connector-curvature="0"
         d="M 0,0 612,0 612,792 0,792 0,0 z"
         id="path4430-8" />
    </clipPath>
    <clipPath
       clipPathUnits="userSpaceOnUse"
       id="clipPath4444">
      <path
         inkscape:connector-curvature="0"
         d="M 0,0 612,0 612,792 0,792 0,0 z"
         id="path4446" />
    </clipPath>
    <clipPath
       clipPathUnits="userSpaceOnUse"
       id="clipPath4428">
      <path
         inkscape:connector-curvature="0"
         d="M 0,0 612,0 612,792 0,792 0,0 z"
         id="path4430" />
    </clipPath>
    <clipPath
       id="clipPath3058"
       clipPathUnits="userSpaceOnUse">
      <path
         id="path3060"
         d="M 0,0 612,0 612,792 0,792 0,0 z"
         inkscape:connector-curvature="0" />
    </clipPath>
    <clipPath
       clipPathUnits="userSpaceOnUse"
       id="clipPath18">
      <path
         d="M 0,792 612,792 612,0 0,0 0,792 z"
         id="path20"
         inkscape:connector-curvature="0" />
    </clipPath>
    <clipPath
       clipPathUnits="userSpaceOnUse"
       id="clipPath56">
      <path
         d="M 0,792 612,792 612,0 0,0 0,792 z"
         id="path58"
         inkscape:connector-curvature="0" />
    </clipPath>
    <clipPath
       clipPathUnits="userSpaceOnUse"
       id="clipPath764">
      <path
         d="m 60.155,472.06 69.989,0 0,66.345 -69.989,0 0,-66.345 z"
         id="path766"
         inkscape:connector-curvature="0" />
    </clipPath>
    <clipPath
       clipPathUnits="userSpaceOnUse"
       id="clipPath778">
      <path
         d="m 36.4,393.12 131.681,0 0,76.32 -131.681,0 0,-76.32 z"
         id="path780"
         inkscape:connector-curvature="0" />
    </clipPath>
    <clipPath
       clipPathUnits="userSpaceOnUse"
       id="clipPath790">
      <path
         d="m 36.8,315.8 131.68,0 0,76.32 -131.68,0 0,-76.32 z"
         id="path792"
         inkscape:connector-curvature="0" />
    </clipPath>
    <clipPath
       clipPathUnits="userSpaceOnUse"
       id="clipPath840">
      <path
         d="M 69.28,123.822 103.922,95.77 127.967,125.464 93.326,153.516 69.28,123.822 z"
         id="path842"
         inkscape:connector-curvature="0" />
    </clipPath>
    <clipPath
       clipPathUnits="userSpaceOnUse"
       id="clipPath868">
      <path
         d="m 36,239.48 132.48,0 0,76.32 -132.48,0 0,-76.32 z"
         id="path870"
         inkscape:connector-curvature="0" />
    </clipPath>
    <clipPath
       clipPathUnits="userSpaceOnUse"
       id="clipPath934">
      <path
         d="m 54.72,168.729 65.071,0 0,62.585 -65.071,0 0,-62.585 z"
         id="path936"
         inkscape:connector-curvature="0" />
    </clipPath>
    <clipPath
       clipPathUnits="userSpaceOnUse"
       id="clipPath3032">
      <rect
         style="fill:#00ff00"
         id="rect3034"
         width="68.101189"
         height="68.101189"
         x="-62.908512"
         y="-29.280237"
         transform="matrix(0.5941434,-0.80435913,-0.80435913,-0.5941434,0,0)" />
    </clipPath>
    <clipPath
       id="clipPath4746"
       clipPathUnits="userSpaceOnUse">
      <path
         id="path4748"
         d="M 0,0 612,0 612,792 0,792 0,0 z"
         inkscape:connector-curvature="0" />
    </clipPath>
    <clipPath
       id="clipPath5138"
       clipPathUnits="userSpaceOnUse">
      <path
         id="path5140"
         d="M 0,0 612,0 612,792 0,792 0,0 z"
         inkscape:connector-curvature="0" />
    </clipPath>
    <clipPath
       id="clipPath5408"
       clipPathUnits="userSpaceOnUse">
      <path
         id="path5410"
         d="M 0,0 612,0 612,792 0,792 0,0 z"
         inkscape:connector-curvature="0" />
    </clipPath>
    <clipPath
       id="clipPath5624"
       clipPathUnits="userSpaceOnUse">
      <path
         id="path5626"
         d="M 0,0 612,0 612,792 0,792 0,0 z"
         inkscape:connector-curvature="0" />
    </clipPath>
  </defs>
  <sodipodi:namedview
     id="base"
     pagecolor="#ffffff"
     bordercolor="#666666"
     borderopacity="1.0"
     inkscape:pageopacity="0.0"
     inkscape:pageshadow="2"
     inkscape:zoom="0.35"
     inkscape:cx="375"
     inkscape:cy="152.45307"
     inkscape:document-units="px"
     inkscape:current-layer="layer1"
     showgrid="false"
     inkscape:window-width="1366"
     inkscape:window-height="706"
     inkscape:window-x="-8"
     inkscape:window-y="-8"
     inkscape:window-maximized="1" />
  <metadata
     id="metadata5534">
    <rdf:RDF>
      <cc:Work
         rdf:about="">
        <dc:format>image/svg+xml</dc:format>
        <dc:type
           rdf:resource="http://purl.org/dc/dcmitype/StillImage" />
        <dc:title></dc:title>
      </cc:Work>
    </rdf:RDF>
  </metadata>
  <g
     inkscape:label="Layer 1"
     inkscape:groupmode="layer"
     id="layer1">
    <rect
       style="fill:#00ff00;fill-opacity:1;stroke:#00ff00;stroke-width:32.64248657;stroke-linecap:round;stroke-linejoin:round;stroke-miterlimit:4;stroke-opacity:1;stroke-dasharray:none"
       id="rect6471"
       width="1467.3575"
       height="1467.3575"
       x="289.96408"
       y="2.1833432" />
    <text
       xml:space="preserve"
       style="font-size:55.22682953px;font-style:normal;font-weight:normal;line-height:125%;letter-spacing:0px;word-spacing:0px;fill:#000000;fill-opacity:1;stroke:none;font-family:Sans"
       x="816.93665"
       y="1512.5881"
       id="text3261"
       sodipodi:linespacing="125%"><tspan
         sodipodi:role="line"
         id="tspan3263"
         x="816.93665"
         y="1512.5881" /></text>
    <g
       transform="matrix(0.99998923,-0.00464211,0.00464211,0.99998923,0,0)"
       style="font-size:75.05748749px;font-style:normal;font-weight:normal;line-height:125%;letter-spacing:0px;word-spacing:0px;fill:#1a1a1a;fill-opacity:1;stroke:none;font-family:Sans"
       id="text3287">
      <path
         d="m 348.25576,1406.8136 0,-33.7905 -5.82722,0 0,-5.1309 5.82722,0 0,-4.1414 c -1e-5,-2.6142 0.2321,-4.5566 0.69633,-5.8272 0.63525,-1.7102 1.75305,-3.0968 3.3534,-4.1597 1.60034,-1.0627 3.84204,-1.5941 6.72512,-1.5942 1.85688,10e-5 3.90923,0.2199 6.15706,0.6597 l -0.98952,5.7539 c -1.36826,-0.2443 -2.6632,-0.3664 -3.88482,-0.3665 -2.0035,10e-5 -3.4206,0.4276 -4.2513,1.2827 -0.83073,0.8552 -1.24608,2.4556 -1.24607,4.8011 l 0,3.5916 7.58638,0 0,5.1309 -7.58638,0 0,33.7905 z"
         style=""
         id="path4306" />
      <path
         d="m 392.89444,1402.0126 c -2.4433,2.0767 -4.79496,3.5427 -7.05496,4.3979 -2.26006,0.8551 -4.68501,1.2827 -7.27486,1.2827 -4.27575,0 -7.56195,-1.0445 -9.85863,-3.1335 -2.29668,-2.089 -3.44502,-4.7583 -3.44502,-8.0079 0,-1.9057 0.43368,-3.6465 1.30105,-5.2225 0.86736,-1.5759 2.00348,-2.8403 3.40837,-3.7932 1.40487,-0.9528 2.9869,-1.6736 4.74607,-2.1623 1.29492,-0.342 3.24954,-0.6718 5.86386,-0.9895 5.32632,-0.6352 9.24778,-1.3926 11.76438,-2.2722 0.0244,-0.904 0.0366,-1.4782 0.0367,-1.7225 -3e-5,-2.6876 -0.62306,-4.5812 -1.8691,-5.6807 -1.68589,-1.4903 -4.19025,-2.2355 -7.51308,-2.2356 -3.10298,10e-5 -5.39355,0.5437 -6.87172,1.6309 -1.4782,1.0873 -2.57156,3.0114 -3.2801,5.7723 l -6.45025,-0.8796 c 0.58638,-2.7609 1.55147,-4.9904 2.89528,-6.6885 1.34379,-1.698 3.2862,-3.0052 5.82722,-3.9214 2.54099,-0.9162 5.48514,-1.3744 8.83244,-1.3744 3.32284,0 6.02266,0.391 8.09947,1.1728 2.07675,0.7819 3.6038,1.7653 4.58115,2.9502 0.97727,1.1851 1.66139,2.6816 2.05235,4.4896 0.21986,1.1239 0.3298,3.1518 0.32984,6.0837 l 0,8.7958 c -4e-5,6.1327 0.14045,10.0114 0.42147,11.6361 0.28094,1.6248 0.83678,3.1824 1.66753,4.6728 l -6.89004,0 c -0.68415,-1.3682 -1.12394,-2.9686 -1.31937,-4.801 z m -0.54974,-14.733 c -2.39444,0.9773 -5.98605,1.808 -10.77485,2.4921 -2.71206,0.391 -4.63003,0.8308 -5.75392,1.3194 -1.12392,0.4887 -1.99128,1.2033 -2.60209,2.144 -0.61083,0.9407 -0.91624,1.9852 -0.91623,3.1335 -1e-5,1.7592 0.66578,3.2251 1.99738,4.3979 1.33157,1.1728 3.28009,1.7592 5.84554,1.7591 2.54099,10e-5 4.80102,-0.5558 6.7801,-1.6675 1.97903,-1.1117 3.43277,-2.6326 4.36125,-4.5628 0.70852,-1.4904 1.06279,-3.6893 1.06282,-6.5969 z"
         style=""
         id="path4308" />
      <path
         d="m 409.13002,1406.8136 0,-53.7277 6.59685,0 0,53.7277 z"
         style=""
         id="path4310" />
      <path
         d="m 451.38651,1402.0126 c -2.44331,2.0767 -4.79496,3.5427 -7.05497,4.3979 -2.26005,0.8551 -4.685,1.2827 -7.27486,1.2827 -4.27574,0 -7.56195,-1.0445 -9.85862,-3.1335 -2.29668,-2.089 -3.44502,-4.7583 -3.44502,-8.0079 0,-1.9057 0.43368,-3.6465 1.30104,-5.2225 0.86736,-1.5759 2.00349,-2.8403 3.40838,-3.7932 1.40487,-0.9528 2.98689,-1.6736 4.74606,-2.1623 1.29493,-0.342 3.24955,-0.6718 5.86387,-0.9895 5.32632,-0.6352 9.24778,-1.3926 11.76438,-2.2722 0.0244,-0.904 0.0366,-1.4782 0.0367,-1.7225 -3e-5,-2.6876 -0.62307,-4.5812 -1.86911,-5.6807 -1.68589,-1.4903 -4.19024,-2.2355 -7.51308,-2.2356 -3.10298,10e-5 -5.39355,0.5437 -6.87171,1.6309 -1.4782,1.0873 -2.57157,3.0114 -3.2801,5.7723 l -6.45026,-0.8796 c 0.58638,-2.7609 1.55148,-4.9904 2.89529,-6.6885 1.34379,-1.698 3.28619,-3.0052 5.82721,-3.9214 2.541,-0.9162 5.48514,-1.3744 8.83245,-1.3744 3.32283,0 6.02265,0.391 8.09947,1.1728 2.07675,0.7819 3.6038,1.7653 4.58114,2.9502 0.97728,1.1851 1.6614,2.6816 2.05236,4.4896 0.21985,1.1239 0.3298,3.1518 0.32984,6.0837 l 0,8.7958 c -4e-5,6.1327 0.14045,10.0114 0.42146,11.6361 0.28094,1.6248 0.83679,3.1824 1.66754,4.6728 l -6.89004,0 c -0.68415,-1.3682 -1.12394,-2.9686 -1.31937,-4.801 z m -0.54974,-14.733 c -2.39444,0.9773 -5.98605,1.808 -10.77485,2.4921 -2.71206,0.391 -4.63003,0.8308 -5.75392,1.3194 -1.12392,0.4887 -1.99128,1.2033 -2.60209,2.144 -0.61083,0.9407 -0.91624,1.9852 -0.91623,3.1335 -10e-6,1.7592 0.66578,3.2251 1.99738,4.3979 1.33157,1.1728 3.28008,1.7592 5.84554,1.7591 2.54099,10e-5 4.80102,-0.5558 6.78009,-1.6675 1.97903,-1.1117 3.43278,-2.6326 4.36125,-4.5628 0.70853,-1.4904 1.0628,-3.6893 1.06283,-6.5969 z"
         style=""
         id="path4312" />
      <path
         d="m 467.76868,1406.8136 0,-38.9214 5.93717,0 0,5.534 c 2.85862,-4.2757 6.98775,-6.4136 12.38741,-6.4136 2.34552,0 4.50172,0.4215 6.46858,1.2644 1.96681,0.843 3.43888,1.9486 4.41623,3.3168 0.97727,1.3682 1.66139,2.993 2.05235,4.8743 0.24429,1.2217 0.36645,3.3595 0.36649,6.4136 l 0,23.9319 -6.59685,0 0,-23.6754 c -3e-5,-2.6875 -0.25657,-4.6971 -0.76963,-6.0287 -0.51312,-1.3316 -1.42324,-2.3944 -2.73036,-3.1885 -1.30718,-0.7941 -2.84034,-1.1911 -4.59947,-1.1911 -2.80979,0 -5.23474,0.8918 -7.27486,2.6754 -2.04015,1.7836 -3.06022,5.1675 -3.06021,10.1518 l 0,21.2565 z"
         style=""
         id="path4314" />
      <path
         d="m 506.91,1395.1958 6.52355,-1.0262 c 0.36649,2.6144 1.38655,4.6178 3.06021,6.0105 1.67363,1.3927 4.01307,2.089 7.01831,2.089 3.02965,0 5.27746,-0.6169 6.74345,-1.8508 1.46594,-1.2338 2.19892,-2.6815 2.19895,-4.3429 -3e-5,-1.4904 -0.6475,-2.6632 -1.94241,-3.5183 -0.90403,-0.5864 -3.15185,-1.3316 -6.74344,-2.2356 -4.83771,-1.2216 -8.1911,-2.2784 -10.0602,-3.1702 -1.86911,-0.8918 -3.28621,-2.1256 -4.2513,-3.7015 -0.9651,-1.5759 -1.44765,-3.3168 -1.44764,-5.2225 -10e-6,-1.7347 0.39703,-3.3412 1.19109,-4.8194 0.79406,-1.4782 1.87521,-2.7059 3.24346,-3.6833 1.02616,-0.7573 2.42494,-1.3987 4.19633,-1.924 1.77136,-0.5253 3.671,-0.788 5.69894,-0.788 3.05408,0 5.73557,0.4398 8.04449,1.3194 2.30887,0.8796 4.01306,2.0707 5.11256,3.5733 1.09944,1.5026 1.85686,3.5122 2.27225,6.0288 l -6.45025,0.8795 c -0.29322,-2.0034 -1.14226,-3.5671 -2.54712,-4.6911 -1.40491,-1.1238 -3.39007,-1.6858 -5.95549,-1.6858 -3.02968,0 -5.19198,0.5009 -6.4869,1.5026 -1.29495,1.0018 -1.94242,2.1745 -1.94241,3.5183 -10e-6,0.8552 0.26875,1.6248 0.80628,2.3089 0.53751,0.7086 1.38044,1.295 2.5288,1.7592 0.65967,0.2443 2.60207,0.8063 5.82721,1.6858 4.66664,1.2461 7.9223,2.2662 9.767,3.0602 1.84465,0.7941 3.29229,1.9486 4.34293,3.4634 1.05058,1.5148 1.57588,3.3962 1.57591,5.644 -3e-5,2.1989 -0.64139,4.2696 -1.92408,6.212 -1.28275,1.9424 -3.13353,3.445 -5.55234,4.5078 -2.41887,1.0629 -5.15534,1.5943 -8.20942,1.5943 -5.0576,0 -8.91186,-1.0506 -11.56281,-3.1518 -2.65096,-2.1013 -4.34293,-5.2164 -5.07591,-9.3456 z"
         style=""
         id="path4316" />
      <path
         d="m 561.4806,1400.9131 0.95287,5.8272 c -1.85691,0.3909 -3.51833,0.5864 -4.98428,0.5864 -2.39443,0 -4.25132,-0.3787 -5.57068,-1.1361 -1.31937,-0.7575 -2.24782,-1.7531 -2.78533,-2.9869 -0.53753,-1.2339 -0.80629,-3.8299 -0.80628,-7.788 l 0,-22.3926 -4.83769,0 0,-5.1309 4.83769,0 0,-9.6387 6.5602,-3.9582 0,13.5969 6.6335,0 0,5.1309 -6.6335,0 0,22.7591 c -2e-5,1.8813 0.11604,3.0908 0.34816,3.6283 0.2321,0.5375 0.61081,0.9651 1.13613,1.2827 0.52529,0.3176 1.2766,0.4764 2.25392,0.4764 0.73297,0 1.69806,-0.085 2.89529,-0.2565 z"
         style=""
         id="path4318" />
      <path
         d="m 594.53814,1394.2796 6.81675,0.8429 c -1.07508,3.9826 -3.06635,7.0733 -5.97382,9.2723 -2.90753,2.1989 -6.6213,3.2984 -11.14134,3.2984 -5.69285,0 -10.20681,-1.7531 -13.54187,-5.2592 -3.33508,-3.5061 -5.00261,-8.4232 -5.00261,-14.7513 0,-6.5479 1.68586,-11.6299 5.05759,-15.246 3.37171,-3.616 7.74517,-5.4241 13.1204,-5.4241 5.20415,0 9.45545,1.7714 12.75391,5.3141 3.29838,3.5428 4.94759,8.5271 4.94763,14.9529 -4e-5,0.3909 -0.0122,0.9773 -0.0367,1.7592 l -29.02613,0 c 0.24431,4.2757 1.45373,7.5497 3.62826,9.8219 2.1745,2.2723 4.88654,3.4084 8.13612,3.4084 2.41882,0 4.48339,-0.6352 6.19371,-1.9058 1.71026,-1.2705 3.06628,-3.2984 4.06805,-6.0837 z m -21.65965,-10.6649 21.73295,0 c -0.29322,-3.274 -1.12394,-5.7295 -2.49214,-7.3665 -2.10125,-2.541 -4.8255,-3.8115 -8.17277,-3.8115 -3.02968,0 -5.57679,1.014 -7.64135,3.0419 -2.06458,2.0279 -3.20681,4.7399 -3.42669,8.1361 z"
         style=""
         id="path4320" />
      <path
         d="m 609.60096,1406.8136 0,-38.9214 5.93717,0 0,5.9005 c 1.51482,-2.7609 2.91359,-4.5811 4.19633,-5.4607 1.2827,-0.8796 2.69369,-1.3194 4.23297,-1.3194 2.22337,0 4.4834,0.7086 6.7801,2.1257 l -2.27225,6.1204 c -1.61258,-0.9529 -3.22515,-1.4293 -4.83769,-1.4293 -1.44155,0 -2.73649,0.4337 -3.88481,1.301 -1.14835,0.8674 -1.96685,2.0707 -2.45549,3.6099 -0.733,2.3456 -1.09949,4.9111 -1.09948,7.6964 l 0,20.3769 z"
         style=""
         id="path4322" />
      <path
         d="m 636.61139,1406.8136 0,-7.5131 7.51308,0 0,7.5131 z"
         style=""
         id="path4324" />
      <path
         d="m 661.64276,1406.8136 -6.12041,0 0,-53.7277 6.59685,0 0,19.1675 c 2.78532,-3.4938 6.34028,-5.2408 10.6649,-5.2408 2.39439,0 4.66053,0.4826 6.79842,1.4476 2.13784,0.9652 3.897,2.3212 5.27748,4.0681 1.38042,1.747 2.46157,3.8543 3.24345,6.322 0.78181,2.4677 1.17274,5.1065 1.17278,7.9162 -4e-5,6.6702 -1.64925,11.8255 -4.94764,15.466 -3.29846,3.6404 -7.25656,5.4607 -11.87433,5.4607 -4.59338,0 -8.19721,-1.918 -10.8115,-5.7539 z m -0.0733,-19.7539 c -1e-5,4.6667 0.63524,8.0384 1.90576,10.1152 2.07677,3.3961 4.88653,5.0942 8.4293,5.0942 2.88305,0 5.37519,-1.2522 7.47643,-3.7565 2.10119,-2.5044 3.1518,-6.2365 3.15183,-11.1964 -3e-5,-5.0819 -1.00788,-8.8324 -3.02356,-11.2512 -2.01573,-2.4189 -4.45289,-3.6283 -7.3115,-3.6283 -2.88309,0 -5.37523,1.2522 -7.47643,3.7565 -2.10123,2.5044 -3.15184,6.1266 -3.15183,10.8665 z"
         style=""
         id="path4326" />
      <path
         d="m 697.04586,1421.8031 -0.73298,-6.1937 c 1.44153,0.3909 2.69981,0.5864 3.77486,0.5864 1.46596,0 2.63873,-0.2444 3.51832,-0.733 0.87957,-0.4887 1.60034,-1.1728 2.1623,-2.0524 0.41535,-0.6596 1.08725,-2.2966 2.01571,-4.9109 0.12215,-0.3665 0.31761,-0.9041 0.58638,-1.6126 l -14.76961,-38.9947 7.10994,0 8.09946,22.5392 c 1.0506,2.8587 1.99126,5.8639 2.82199,9.0157 0.7574,-3.0296 1.66141,-5.986 2.71204,-8.8691 l 8.31936,-22.6858 6.59685,0 -14.80626,39.5811 c -1.58816,4.2757 -2.82201,7.2199 -3.70157,8.8324 -1.17279,2.1745 -2.51659,3.7688 -4.03141,4.7827 -1.51484,1.014 -3.32287,1.521 -5.42407,1.521 -1.27052,0 -2.68762,-0.2688 -4.25131,-0.8063 z"
         style=""
         id="path4328" />
    </g>
    <g
       id="g6017"
       transform="matrix(-7.2109136,-17.608517,-17.608517,7.2109136,1347.6063,103.15223)"
       clip-path="url(#clipPath3032)"
       style="fill:#ffffff">
      <path
         d="m 0,0 c -0.255,0 -0.505,0.118 -0.666,0.34 -0.266,0.367 -0.183,0.881 0.184,1.147 7.067,5.109 9.985,13.992 7.435,22.629 -2.554,8.652 -9.845,14.535 -18.574,14.989 -0.453,0.023 -0.801,0.409 -0.777,0.862 0.023,0.453 0.401,0.801 0.862,0.778 C -2.102,40.255 5.774,33.911 8.528,24.581 11.278,15.267 8.119,5.679 0.481,0.156 0.335,0.051 0.167,0 0,0 m -3.776,4.432 c -0.228,0 -0.455,0.094 -0.617,0.279 -0.3,0.34 -0.266,0.859 0.075,1.159 4.338,3.812 6.043,9.713 4.449,15.401 -1.609,5.746 -6.154,9.942 -11.861,10.949 -0.446,0.079 -0.744,0.505 -0.666,0.952 0.079,0.447 0.509,0.745 0.952,0.666 C -5.11,32.719 -0.068,28.074 1.713,21.713 3.478,15.412 1.582,8.868 -3.234,4.636 -3.391,4.499 -3.583,4.432 -3.776,4.432 m -2.72,7.4 c -0.114,0 -0.229,0.023 -0.34,0.073 -0.413,0.189 -0.594,0.676 -0.407,1.088 1.022,2.241 1.11,4.746 0.247,7.052 -0.862,2.306 -2.571,4.139 -4.812,5.159 -0.412,0.188 -0.594,0.675 -0.406,1.088 0.188,0.412 0.674,0.594 1.087,0.407 2.64,-1.203 4.653,-3.362 5.669,-6.079 1.016,-2.717 0.913,-5.667 -0.29,-8.308 -0.138,-0.302 -0.436,-0.48 -0.748,-0.48"
         style="fill:#ffffff;fill-opacity:1;fill-rule:nonzero;stroke:none"
         id="path6019"
         inkscape:connector-curvature="0" />
    </g>
    <g
       id="g60"
       transform="matrix(11.428586,0,0,-11.428586,1627.5209,577.97708)">
      <path
         inkscape:connector-curvature="0"
         d="m 0,0 c 1.129,2.292 1.779,4.861 1.779,7.589 0,9.515 -7.714,17.229 -17.229,17.229 -6.841,0 -12.733,-3.996 -15.515,-9.773 -0.564,0.057 -1.136,0.087 -1.715,0.087 -9.516,0 -17.229,-7.714 -17.229,-17.23 0,-5.367 2.455,-10.16 6.303,-13.32 -0.05,-0.534 -0.083,-1.073 -0.083,-1.621 0,-9.516 7.712,-17.23 17.229,-17.23 l 0,-38.969 8.486,0 0,41.214 c 1.215,0.689 2.334,1.524 3.342,2.477 0.94,-0.158 1.899,-0.26 2.883,-0.26 9.516,0 17.229,7.714 17.229,17.23 C 5.48,-7.608 3.365,-3.144 0,0"
         style="fill:#241f21;fill-opacity:1;fill-rule:nonzero;stroke:none"
         id="path62" />
    </g>
    <g
       style="font-size:450.42462158px;font-style:normal;font-weight:normal;line-height:125%;letter-spacing:0px;word-spacing:0px;fill:#1a1a1a;fill-opacity:1;stroke:none;font-family:Sans"
       id="text6588">
      <path
         d="m 390.21353,1036.8776 -36.72896,0 0,-322.42313 39.5881,0 0,115.02543 c 16.71489,-20.9668 38.04846,-31.45031 64.00077,-31.45055 14.36886,2.4e-4 27.9681,2.89603 40.79773,8.68739 12.82929,5.79182 23.38611,13.92936 31.67048,24.41266 8.28397,10.48371 14.77201,23.1299 19.46415,37.9386 4.6917,14.80904 7.03766,30.64426 7.03789,47.50572 -2.3e-4,40.02805 -9.89725,70.96539 -29.69108,92.81208 -19.79423,21.8468 -43.54707,32.7702 -71.25858,32.7702 -27.56515,0 -49.19196,-11.5099 -64.8805,-34.5296 z m -0.43987,-118.54441 c -6e-5,28.00501 3.81212,48.23891 11.43657,60.70176 12.46283,20.38058 29.32441,30.57085 50.58479,30.57085 17.30132,0 32.25681,-7.5144 44.86652,-22.54326 12.60936,-15.02876 18.91412,-37.42534 18.91431,-67.18981 -1.9e-4,-30.49735 -6.04837,-53.0039 -18.14454,-67.51971 -12.09653,-14.51543 -26.72212,-21.77325 -43.87682,-21.77345 -17.30158,2e-4 -32.25707,7.5146 -44.86651,22.54322 -12.60962,15.02899 -18.91438,36.76577 -18.91432,65.2104 z"
         style=""
         id="path4301" />
      <path
         d="m 764.32109,961.66017 40.9077,5.05848 c -6.45162,23.89953 -18.40135,42.44725 -35.84922,55.64325 -17.44827,13.1961 -39.73488,19.7941 -66.85991,19.7941 -34.16316,0 -61.25165,-10.5202 -81.26557,-31.5605 -20.01401,-21.04033 -30.021,-50.5481 -30.02098,-88.52343 -2e-5,-39.2947 10.11693,-69.79217 30.35088,-91.4925 20.23385,-21.69992 46.47927,-32.54998 78.73633,-32.55022 31.23046,2.4e-4 56.74277,10.63037 76.537,31.89042 19.79383,21.26046 29.69084,51.17144 29.69108,89.73303 -2.4e-4,2.34607 -0.0736,5.86501 -0.21994,10.55682 l -174.18765,0 c 1.46617,25.65904 8.72398,45.30645 21.77346,58.94229 13.04932,13.63589 29.32441,20.45389 48.82533,20.45389 14.51549,0 26.90509,-3.8122 37.16882,-11.4366 10.26341,-7.62433 18.40096,-19.79399 24.41267,-36.50903 z m -129.98094,-64.00076 130.4208,0 c -1.75965,-19.64727 -6.74482,-34.38283 -14.9555,-44.20672 -12.60971,-15.24855 -28.95811,-22.87292 -49.04526,-22.87312 -18.18131,2e-4 -33.4667,6.08504 -45.85622,18.25451 -12.38967,12.16985 -19.24427,28.44494 -20.56382,48.82533 z"
         style=""
         id="path4303" />
    </g>
    <g
       style="font-size:348.42593384px;font-style:normal;font-weight:normal;line-height:125%;letter-spacing:0px;word-spacing:0px;fill:#1a1a1a;fill-opacity:1;stroke:none;font-family:Sans"
       id="text6592">
      <path
         d="m 352.7467,1294.5687 0,-180.6779 27.39091,0 0,25.3494 c 5.67094,-8.8466 13.21336,-15.9637 22.62727,-21.3513 9.41377,-5.3873 20.13194,-8.081 32.15454,-8.0812 13.38343,2e-4 24.3568,2.779 32.92013,8.3364 8.56305,5.5577 14.60266,13.327 18.11883,23.3078 14.29073,-21.096 32.89158,-31.644 55.80259,-31.6442 17.92011,2e-4 31.70062,4.9623 41.34155,14.8864 9.64043,9.9244 14.46077,25.2077 14.46104,45.85 l 0,124.0246 -30.45324,0 0,-113.8168 c -2.4e-4,-12.2493 -0.99266,-21.0677 -2.97728,-26.4552 -1.98508,-5.3873 -5.58615,-9.7256 -10.80324,-13.015 -5.21754,-3.289 -11.3422,-4.9336 -18.37403,-4.9337 -12.70322,10e-5 -23.25126,4.225 -31.64415,12.6746 -8.39324,8.45 -12.58977,21.9753 -12.58961,40.576 l 0,104.9701 -30.62337,0 0,-117.3896 c -1.3e-4,-13.6102 -2.49537,-23.818 -7.48571,-30.6233 -4.9906,-6.8051 -13.15682,-10.2077 -24.4987,-10.2078 -8.62,10e-5 -16.58774,2.2685 -23.90325,6.8052 -7.31565,4.5369 -12.61802,11.172 -15.90714,19.9052 -3.28923,8.7334 -4.93382,21.323 -4.93376,37.7688 l 0,93.7415 z"
         style=""
         id="path4292" />
      <path
         d="m 767.01289,1236.3843 31.64416,3.913 c -4.99065,18.4875 -14.23437,32.8351 -27.73117,43.0429 -13.49711,10.2077 -30.73691,15.3116 -51.71947,15.3116 -26.42691,0 -47.38122,-8.1378 -62.86298,-24.4136 -15.48184,-16.2757 -23.22274,-39.1014 -23.22273,-68.4773 -1e-5,-30.3964 7.82595,-53.9877 23.47792,-70.774 15.65189,-16.7859 35.95404,-25.179 60.90649,-25.1792 24.15831,2e-4 43.89336,8.2231 59.20518,24.6688 15.31152,16.4461 22.96736,39.5837 22.96753,69.413 -1.7e-4,1.8148 -0.0569,4.5369 -0.17013,8.1662 l -134.74284,0 c 1.13416,19.8486 6.74844,35.0468 16.84286,45.5948 10.0943,10.5481 22.68389,15.8221 37.76882,15.8221 11.22846,0 20.81244,-2.9489 28.75195,-8.8467 7.93926,-5.8978 14.23406,-15.3117 18.88441,-28.2416 z m -100.54674,-49.5078 100.887,0 c -1.36118,-15.1981 -5.21745,-26.5968 -11.56883,-34.1961 -9.75423,-11.7955 -22.40054,-17.6933 -37.93895,-17.6935 -14.06415,2e-4 -25.88817,4.7071 -35.47208,14.1208 -9.58403,9.414 -14.88641,22.0036 -15.90714,37.7688 z"
         style=""
         id="path4294" />
      <path
         d="m 825.02717,1240.6376 30.28311,-4.7637 c 1.70126,12.136 6.43654,21.4364 14.20585,27.9013 7.7692,6.465 18.62914,9.6974 32.57986,9.6974 14.06397,0 24.49859,-2.8638 31.3039,-8.5915 6.80506,-5.7277 10.20766,-12.4478 10.20779,-20.1604 -1.3e-4,-6.9186 -3.00576,-12.3627 -9.01689,-16.3325 -4.19665,-2.722 -14.63127,-6.1813 -31.30389,-10.3779 -22.4572,-5.6709 -38.02407,-10.5763 -46.70064,-14.7162 -8.67666,-4.1398 -15.25501,-9.8675 -19.73506,-17.1832 -4.48011,-7.3154 -6.72015,-15.3966 -6.72013,-24.2435 -2e-5,-8.0526 1.84305,-15.51 5.52922,-22.372 3.68612,-6.8618 8.70494,-12.5611 15.05649,-17.0981 4.76359,-3.5158 11.25688,-6.4931 19.47987,-8.9318 8.22288,-2.4383 17.04126,-3.6576 26.45519,-3.6578 14.17739,2e-4 26.62521,2.0417 37.3435,6.1247 10.71805,4.0833 18.62908,9.6125 23.73311,16.5876 5.10375,6.9755 8.61976,16.3043 10.54806,27.9864 l -29.94286,4.0831 c -1.36116,-9.3003 -5.3025,-16.5591 -11.82402,-21.7766 -6.52175,-5.2172 -15.73711,-7.8258 -27.6461,-7.826 -14.06414,2e-4 -24.10179,2.3253 -30.11299,6.9753 -6.0113,4.6504 -9.01692,10.0946 -9.01688,16.3325 -4e-5,3.9698 1.24757,7.5426 3.74286,10.7182 2.49518,3.2893 6.40817,6.0114 11.73896,8.1662 3.06227,1.1343 12.07914,3.743 27.05064,7.826 21.66309,5.7845 36.77628,10.5198 45.33961,14.2058 8.56306,3.6863 15.28318,9.0454 20.16039,16.0773 4.87689,7.0321 7.31542,15.7654 7.31558,26.2 -1.6e-4,10.2078 -2.97743,19.8202 -8.93182,28.837 -5.95469,9.0169 -14.54624,15.9922 -25.77467,20.926 -11.22869,4.9338 -23.9317,7.4006 -38.10909,7.4006 -23.47798,0 -41.36995,-4.877 -53.67596,-14.6311 -12.30609,-9.7541 -20.16041,-24.2151 -23.56299,-43.3831 z"
         style=""
         id="path4296" />
      <path
         d="m 1011.4895,1294.5687 0,-249.4103 30.6234,0 0,89.4883 c 14.2908,-16.5592 32.3246,-24.8388 54.1013,-24.839 13.3834,2e-4 25.0089,2.6372 34.8766,7.911 9.8674,5.2742 16.9277,12.5615 21.1812,21.8617 4.253,9.3006 6.3797,22.7976 6.3798,40.4909 l 0,114.4974 -30.6233,0 0,-114.4974 c -2e-4,-15.3115 -3.3177,-26.455 -9.9526,-33.4305 -6.6352,-6.9751 -16.0207,-10.4628 -28.1565,-10.463 -9.0737,2e-4 -17.6086,2.3537 -25.6046,7.0604 -7.9961,4.7071 -13.6955,11.087 -17.098,19.1396 -3.4027,8.053 -5.104,19.1681 -5.1039,33.3455 l 0,98.8454 z"
         style=""
         id="path4298" />
    </g>
  </g>
</svg>
